<svg xmlns="http://www.w3.org/2000/svg" xmlns:xlink="http://www.w3.org/1999/xlink" width="780" height="701" viewBox="0 0 780 701">
  <defs>
    <clipPath id="clip-path">
      <rect id="Rectangle_6187" data-name="Rectangle 6187" width="234.059" height="11.542" fill="none"/>
    </clipPath>
    <clipPath id="clip-path-2">
      <rect id="Rectangle_6192" data-name="Rectangle 6192" width="16.499" height="65.07" fill="none"/>
    </clipPath>
    <clipPath id="clip-path-4">
      <rect id="Rectangle_6194" data-name="Rectangle 6194" width="16.499" height="7.389" fill="none"/>
    </clipPath>
    <clipPath id="clip-path-6">
      <rect id="Rectangle_6196" data-name="Rectangle 6196" width="74.549" height="11.841" fill="none"/>
    </clipPath>
    <clipPath id="clip-path-7">
      <rect id="Rectangle_6200" data-name="Rectangle 6200" width="39.603" height="76.28" fill="none"/>
    </clipPath>
    <clipPath id="clip-path-8">
      <rect id="Rectangle_6183" data-name="Rectangle 6183" width="0.31" height="0.386" fill="none"/>
    </clipPath>
    <clipPath id="clip-path-9">
      <path id="Path_18707" data-name="Path 18707" d="M609.207,165.5H168.541a16.692,16.692,0,0,0-16.7,16.685V485.426a16.691,16.691,0,0,0,16.7,16.685H609.207a16.69,16.69,0,0,0,16.7-16.685V182.181a16.692,16.692,0,0,0-16.7-16.685" transform="translate(644.437 1253.599)" fill="#075056"/>
    </clipPath>
  </defs>
  <g id="Group_12005" data-name="Group 12005" transform="translate(-602.873 -1101.379)">
    <path id="Path_18635" data-name="Path 18635" d="M463.2,217.766c17.591,0,18.566-26.455.994-27.307q-.72-.035-1.447-.036a29.366,29.366,0,0,0-8.991,1.406,30.188,30.188,0,0,0-59.7.951,27.966,27.966,0,0,0-18.971-1.842c-15.383,3.959-12.153,26.828,3.731,26.828Z" transform="translate(878.392 1254.794)" fill="#0cf"/>
    <path id="Path_18636" data-name="Path 18636" d="M849.8,349.62c0-14.824-174.608-26.841-390-26.841S69.8,334.8,69.8,349.62s174.61,26.841,390,26.841,390-12.017,390-26.841" transform="translate(533.078 1425.917)" fill="#12b3f9" opacity="0.1"/>
    <path id="Union_41" data-name="Union 41" d="M205.663,336.611H15A15,15,0,0,1,0,321.629V14.978A15,15,0,0,1,15,0H457.364a16.691,16.691,0,0,1,16.7,16.685V319.929a16.691,16.691,0,0,1-16.7,16.682Z" transform="translate(796.276 1419.099)" fill="#fff" stroke="#0e0268" stroke-width="1.5"/>
    <path id="Path_18639" data-name="Path 18639" d="M169.3,465.837V178.995a3.107,3.107,0,0,1,3.108-3.106H540.341a3.107,3.107,0,0,1,3.11,3.106V465.837a3.107,3.107,0,0,1-3.11,3.106H172.41a3.107,3.107,0,0,1-3.108-3.106" transform="translate(663.593 1264.986)" fill="#2c2cc4"/>
    <path id="Path_18641" data-name="Path 18641" d="M385.886,253.781a15.257,15.257,0,1,0-15.257,15.245,15.251,15.251,0,0,0,15.257-15.245" transform="translate(867.747 1333.621)" fill="#0e0268"/>
    <rect id="Rectangle_6181" data-name="Rectangle 6181" width="3.578" height="240.32" transform="translate(909.335 1101.379)" fill="#0e0268"/>
    <rect id="Rectangle_6182" data-name="Rectangle 6182" width="3.578" height="295.522" transform="translate(1165.882 1101.379)" fill="#0e0268"/>
    <g id="Group_12004" data-name="Group 12004" transform="translate(636.53 1514.201)">
      <path id="Path_18651" data-name="Path 18651" d="M182.884,266.461a142.9,142.9,0,0,0-2.995,32.2c.537,14.575-1.2,110.376-1.2,110.376H190.4s16.671-75.032,17.293-80.956S216.7,262.9,216.7,262.9Z" transform="translate(-154.278 -153.887)" fill="#0e0268"/>
      <path id="Path_18652" data-name="Path 18652" d="M184.4,262.515s2.695,20.469,7.277,35.015,27.106,111.931,27.106,111.931H230.5s-2.156-75.032-2.963-80.956-6.74-65.181-6.74-65.181Z" transform="translate(-148.01 -154.31)" fill="#0e0268"/>
      <path id="Path_18653" data-name="Path 18653" d="M201.254,332.628v8.166h22.293a1.278,1.278,0,0,0,.707-2.343c-3.261-2.169-8.483-5.157-13.336-5.824Z" transform="translate(-129.522 -77.496)" fill="#fff" stroke="#0e0268" stroke-width="1"/>
      <path id="Path_18654" data-name="Path 18654" d="M178.976,332.628v8.166h22.293a1.278,1.278,0,0,0,.707-2.343c-3.261-2.169-8.483-5.157-13.336-5.824Z" transform="translate(-153.965 -77.496)" fill="#fff" stroke="#0e0268" stroke-width="1"/>
      <path id="Path_18655" data-name="Path 18655" d="M215.506,212.886l.021,0c-.017-.025-.04-.04-.057-.063a3.134,3.134,0,0,0-.3-.329,3.828,3.828,0,0,0-.4-.371c-.117-.086-.241-.172-.373-.251a4.909,4.909,0,0,0-.648-.321c-.13-.05-.25-.109-.392-.155a7.092,7.092,0,0,0-1.338-.3c-6.757-.872-9.54,1.138-9.54,1.138s-7.781-.857-12.04,2.831c-2.919,2.529-13.632,22.136,3.691,29.229.526.214,1.032.407,1.52.574.159.054.306.1.459.149.321.1.642.21.946.3.182.052.35.088.526.13.262.067.524.136.774.189.178.038.346.061.52.092.227.04.457.08.675.107.17.023.329.036.493.05.205.019.409.036.6.044.157,0,.31,0,.461,0,.182,0,.363,0,.537-.015.149-.013.291-.027.432-.044.164-.019.323-.038.476-.065.136-.023.268-.052.4-.082.147-.036.289-.071.428-.115s.243-.078.361-.119.254-.1.378-.157.222-.1.327-.157.224-.124.331-.191.2-.126.3-.193.2-.147.289-.222.18-.149.266-.226.166-.163.247-.247.161-.168.237-.254.14-.18.21-.27.145-.186.21-.285.113-.182.17-.277.132-.207.191-.316c.044-.084.082-.17.124-.256,1.845-3.759.744-9.21.744-9.21l5.4-9.361s4.87-7.416,2.351-10.981" transform="translate(-147.922 -210.879)" fill="#0cf"/>
      <path id="Path_18656" data-name="Path 18656" d="M197.319,222.751s-2.273-2.269-3.978,0-.564,7.379,2.273,7.661c0,0-.854,7.376-6.531,7.093v5.958H202.43v-4.539s8.236-3.405,7.95-10.214a37.63,37.63,0,0,0-2.273-11.635s-4.542,5.107-10.788,5.675" transform="translate(-142.876 -204.092)" fill="#fff" stroke="#0e0268" stroke-width="1"/>
      <path id="Path_18657" data-name="Path 18657" d="M196.547,230.283c1.321.551,1.091,1.383,1.149,2.632h1.919v-4.539s-3.234,1.027-7.969-1.67a20.932,20.932,0,0,0,4.9,3.577" transform="translate(-140.064 -193.541)" fill="#0e0268"/>
      <path id="Path_18659" data-name="Path 18659" d="M275.666,232.054c-13.191-9.768-49.221-17.578-49.221-17.578l-2.97,5.407s32.708,12.664,30.55,14.552c-1.269,1.115-17.251,8.433-22.662,10.895a8.568,8.568,0,0,1-3.72.761L211.083,246a26.145,26.145,0,0,0-21.347,9.369c-8.4,9.663-22.685,32.037-22.685,32.037l24.059,35.357,2.663,3.9.023-.046-.023.329s.856.094,2.37.235c7.734.715,32.521,2.674,45.641-.107l.365-.082-.623-58a224.836,224.836,0,0,0,34.526-33.385,2.423,2.423,0,0,0-.386-3.554m-80.731,79.1-2.347-5.124L185.111,289.7l12.4-13.885-2.229,30.468Z" transform="translate(-167.05 -206.939)" fill="#7230ae" stroke="#0e0268" stroke-width="1"/>
    </g>
    <path id="Path_18663" data-name="Path 18663" d="M154,374.659s-3.611-3.367-1.189-16.146,8.569-25.051,5.553-38.913-26.655-48.816-26.733-51.143-7.3,40.665,4.931,57.6,13.7,22.808,13.154,31.714.126,16.077,1.468,18.148Z" transform="translate(619.859 1366.304)" fill="#075056"/>
    <path id="Path_18664" data-name="Path 18664" d="M150.617,348.91c-1.422,5.7-2.28,19.994-.008,23.414.212.321.518.138.9-.453-.692-2.362-1.145-6.5.164-13.408,2.422-12.779,8.567-25.048,5.553-38.913s-26.655-48.816-26.735-51.14c0,0,3.563,29.122,15.559,49.166,8.59,14.353,5.994,25.633,4.572,31.333" transform="translate(621.003 1366.352)" fill="#00d182"/>
    <path id="Path_18665" data-name="Path 18665" d="M144.271,357.469s-6.944-17.326,4.826-32.328,30.594-34.263,30.969-41.895c0,0,4.836,36.23-10.484,46.486s-26.064,11.893-23.407,27.672Z" transform="translate(633.897 1382.604)" fill="#075056"/>
    <path id="Path_18666" data-name="Path 18666" d="M159.921,322.449c-17.082,12.425-18.478,26.735-15.827,33.374a1.685,1.685,0,0,0,1.111,1c-2.292-15.231,8.366-16.964,23.491-27.09,15.32-10.256,10.484-46.486,10.484-46.486s-2.175,26.777-19.259,39.2" transform="translate(634.783 1382.605)" fill="#00d182"/>
    <path id="Path_18667" data-name="Path 18667" d="M157.778,361.465a60.552,60.552,0,0,0,1.042-19.08c-1.185-9.9-11.541-15.476-21.215-25.937-4.979-5.384-6.451-33.848-3.364-36.492,0,0-17.082,20.685-14.448,35.83s30.5,24.986,33.081,32.3a40.6,40.6,0,0,1,2.366,13.462Z" transform="translate(608.969 1378.998)" fill="#075056"/>
    <path id="Path_18668" data-name="Path 18668" d="M124.867,287.895c-5.646,15.277.141,33.779,18.9,45.271,13.806,8.46,9.41,26.052,9.41,26.052l2.254-6.941a55.1,55.1,0,0,0-.208-10.094c-1.185-9.9-11.541-15.476-21.215-25.937-4.8-5.191-6.34-31.846-3.674-36.107a91.642,91.642,0,0,0-5.463,7.756" transform="translate(612.568 1379.2)" fill="#00d182"/>
    <path id="Path_18670" data-name="Path 18670" d="M144.911,337.3s4-14.843,13.9-16.842,21.274-16.618,21.888-19.485c0,0-1.671,27.574-35.793,36.327" transform="translate(636.831 1402.02)" fill="#075056"/>
    <path id="Path_18671" data-name="Path 18671" d="M156.235,325.362c-6.067,3.032-8.59,7.108-9.486,10.809,30.38-9.761,31.938-35.2,31.938-35.2a10.946,10.946,0,0,1-1.544,2.9c-2.98,5.216-10.192,16.138-20.909,21.492" transform="translate(638.848 1402.02)" fill="#00d182"/>
    <path id="Path_18672" data-name="Path 18672" d="M182.222,315.7H130.434l6.151,38.651a6.037,6.037,0,0,0,5.966,5.088H170.1a6.037,6.037,0,0,0,5.966-5.088Z" transform="translate(620.946 1418.156)" fill="#12b3f9"/>
    <g id="Group_11979" data-name="Group 11979" transform="translate(751.383 1733.854)" opacity="0.56">
      <g id="Group_11978" data-name="Group 11978" transform="translate(0 0)">
        <g id="Group_12006" data-name="Group 12006">
          <path id="Path_18673" data-name="Path 18673" d="M169.676,315.7H130.435l1.017,6.4h37.206l-5.134,32.255a6.037,6.037,0,0,1-5.967,5.088h12.548a6.039,6.039,0,0,0,5.967-5.088l6.149-38.651Z" transform="translate(-130.435 -315.696)" fill="#5c87c7"/>
        </g>
      </g>
    </g>
    <rect id="Rectangle_6185" data-name="Rectangle 6185" width="234.059" height="47.553" transform="translate(940.305 1664.923)" fill="#0e0268"/>
    <g id="Group_11982" data-name="Group 11982" transform="translate(940.305 1664.923)" opacity="0.29" style="mix-blend-mode: multiply;isolation: isolate">
      <g id="Group_11981" data-name="Group 11981">
        <g id="Group_11980" data-name="Group 11980" clip-path="url(#clip-path)">
          <rect id="Rectangle_6186" data-name="Rectangle 6186" width="234.059" height="11.542" transform="translate(0)" fill="#983f46"/>
        </g>
      </g>
    </g>
    <path id="Path_18674" data-name="Path 18674" d="M233.224,282.8h21.362l-5.725,11.547H227.486Z" transform="translate(727.431 1382.122)" fill="#db7d37"/>
    <path id="Path_18675" data-name="Path 18675" d="M256.167,282.8h21.362L271.8,294.351H250.441Z" transform="translate(752.617 1382.122)" fill="#db7d37"/>
    <path id="Path_18676" data-name="Path 18676" d="M279.116,282.8h21.362l-5.725,11.547H273.391Z" transform="translate(777.797 1382.122)" fill="#db7d37"/>
    <path id="Path_18677" data-name="Path 18677" d="M302.066,282.8h21.352l-5.725,11.547H296.34Z" transform="translate(802.978 1382.122)" fill="#db7d37"/>
    <path id="Path_18678" data-name="Path 18678" d="M346.205,282.8v.323l-5.577,11.224H319.29l5.725-11.547Z" transform="translate(828.158 1382.122)" fill="#db7d37"/>
    <rect id="Rectangle_6188" data-name="Rectangle 6188" width="16.501" height="65.019" transform="translate(969.437 1712.482)" fill="#12b3f9"/>
    <rect id="Rectangle_6189" data-name="Rectangle 6189" width="16.501" height="65.019" transform="translate(1130.01 1712.482)" fill="#12b3f9"/>
    <rect id="Rectangle_6190" data-name="Rectangle 6190" width="16.501" height="7.383" transform="translate(969.437 1657.494)" fill="#12b3f9"/>
    <rect id="Rectangle_6191" data-name="Rectangle 6191" width="16.501" height="7.383" transform="translate(1130.01 1657.494)" fill="#12b3f9"/>
    <g id="Group_11985" data-name="Group 11985" transform="translate(969.441 1712.43)" opacity="0.56">
      <g id="Group_11984" data-name="Group 11984">
        <g id="Group_11983" data-name="Group 11983" clip-path="url(#clip-path-2)">
          <path id="Path_18679" data-name="Path 18679" d="M234.411,313.662h12.751v56.882h3.75v-65.07h-16.5Z" transform="translate(-234.411 -305.474)" fill="#5c87c7"/>
        </g>
      </g>
    </g>
    <g id="Group_11988" data-name="Group 11988" transform="translate(1130.01 1712.43)" opacity="0.56">
      <g id="Group_11987" data-name="Group 11987">
        <g id="Group_11986" data-name="Group 11986" clip-path="url(#clip-path-2)">
          <path id="Path_18680" data-name="Path 18680" d="M310.975,313.662H322.6v56.882h4.878v-65.07h-16.5Z" transform="translate(-310.975 -305.474)" fill="#5c87c7"/>
        </g>
      </g>
    </g>
    <g id="Group_11991" data-name="Group 11991" transform="translate(969.441 1657.494)" opacity="0.56">
      <g id="Group_11990" data-name="Group 11990">
        <g id="Group_11989" data-name="Group 11989" clip-path="url(#clip-path-4)">
          <path id="Path_18681" data-name="Path 18681" d="M247.162,285.718H234.411v.93h16.5v-7.389h-3.748Z" transform="translate(-234.411 -279.259)" fill="#5c87c7"/>
        </g>
      </g>
    </g>
    <g id="Group_11994" data-name="Group 11994" transform="translate(1130.01 1657.494)" opacity="0.56">
      <g id="Group_11993" data-name="Group 11993">
        <g id="Group_11992" data-name="Group 11992" clip-path="url(#clip-path-4)">
          <path id="Path_18682" data-name="Path 18682" d="M322.6,279.259v6.459H310.974v.93h16.5v-7.389Z" transform="translate(-310.976 -279.259)" fill="#5c87c7"/>
        </g>
      </g>
    </g>
    <path id="Path_18683" data-name="Path 18683" d="M262.231,282.8l-23.6,47.553H220.518V323.8L240.869,282.8Z" transform="translate(719.786 1382.122)" fill="#fff"/>
    <path id="Path_18684" data-name="Path 18684" d="M265.52,282.8l-23.6,47.553h21.362l23.6-47.553Z" transform="translate(743.265 1382.122)" fill="#fff"/>
    <path id="Path_18685" data-name="Path 18685" d="M309.833,282.8l-23.6,47.553H264.865L288.471,282.8Z" transform="translate(768.444 1382.122)" fill="#fff"/>
    <path id="Path_18686" data-name="Path 18686" d="M332.77,282.8l-23.593,47.553H287.815l23.6-47.553Z" transform="translate(793.624 1382.122)" fill="#fff"/>
    <path id="Path_18687" data-name="Path 18687" d="M334.369,282.8l-23.6,47.553h21.349l23.444-47.23Z" transform="translate(818.804 1382.122)" fill="#fff"/>
    <path id="Path_18688" data-name="Path 18688" d="M254.586,282.8l-5.725,11.547H227.486l5.738-11.547Z" transform="translate(727.431 1382.122)" fill="#e6f5ff"/>
    <path id="Path_18689" data-name="Path 18689" d="M277.53,282.8,271.8,294.351H250.441l5.727-11.547Z" transform="translate(752.617 1382.122)" fill="#e6f5ff"/>
    <path id="Path_18690" data-name="Path 18690" d="M300.48,282.8l-5.725,11.547H273.39l5.727-11.547Z" transform="translate(777.796 1382.122)" fill="#e6f5ff"/>
    <path id="Path_18691" data-name="Path 18691" d="M323.417,282.8l-5.725,11.547H296.34l5.725-11.547Z" transform="translate(802.978 1382.122)" fill="#e6f5ff"/>
    <path id="Path_18692" data-name="Path 18692" d="M346.205,283.127l-5.577,11.224H319.29l5.725-11.547Z" transform="translate(828.158 1382.121)" fill="#e6f5ff"/>
    <path id="Path_18693" data-name="Path 18693" d="M260.547,282.02a14.711,14.711,0,1,0-14.712,14.7,14.707,14.707,0,0,0,14.712-14.7" transform="translate(731.423 1365.155)" fill="#0e0268"/>
    <path id="Path_18694" data-name="Path 18694" d="M248.294,277.818a6.667,6.667,0,1,0-6.667,6.662,6.664,6.664,0,0,0,6.667-6.662" transform="translate(735.632 1369.358)" fill="#fff"/>
    <path id="Path_18695" data-name="Path 18695" d="M337.27,282.02a14.711,14.711,0,1,0-14.712,14.7,14.707,14.707,0,0,0,14.712-14.7" transform="translate(815.603 1365.155)" fill="#0e0268"/>
    <path id="Path_18696" data-name="Path 18696" d="M325.018,277.818a6.667,6.667,0,1,0-6.669,6.662,6.665,6.665,0,0,0,6.669-6.662" transform="translate(819.812 1369.358)" fill="#fff"/>
    <path id="Path_18697" data-name="Path 18697" d="M413.406,377.706H338.861l11.4-27.618v-.017l4.586-11.144,1.263-3.055,2.059-4.971.422-1.014,4.587-11.144.841-2.026L372.148,297a4.313,4.313,0,0,1,7.971,0l8.127,19.715.843,2.026,4.584,11.144.422,1.014,2.059,4.971,1.263,3.055L402,350.072v.017Z" transform="translate(849.631 1394.755)" fill="#ff9191"/>
    <g id="Group_11997" data-name="Group 11997" transform="translate(1188.496 1760.62)" opacity="0.29" style="mix-blend-mode: multiply;isolation: isolate">
      <g id="Group_11996" data-name="Group 11996">
        <g id="Group_11995" data-name="Group 11995" clip-path="url(#clip-path-6)">
          <path id="Path_18698" data-name="Path 18698" d="M343.747,328.469l-4.884,11.84h74.549l-4.884-11.84Z" transform="translate(-338.863 -328.469)" fill="#983f46"/>
        </g>
      </g>
    </g>
    <rect id="Rectangle_6197" data-name="Rectangle 6197" width="85.377" height="12.06" transform="translate(1182.539 1765.381)" fill="#ff9191"/>
    <g id="Group_12003" data-name="Group 12003" transform="translate(1220.501 1689.097)" opacity="0.29" style="mix-blend-mode: multiply;isolation: isolate">
      <g id="Group_12002" data-name="Group 12002">
        <g id="Group_12001" data-name="Group 12001" clip-path="url(#clip-path-7)">
          <path id="Path_18699" data-name="Path 18699" d="M393.727,370.618H383.183l-8.469-20.526v-.017l-4.587-11.144-1.265-3.053-2.057-4.973-.422-1.014L361.8,318.746l-.841-2.024-6.833-16.6L355.4,297a4.311,4.311,0,0,1,7.969,0l8.126,19.717.843,2.024,4.587,11.144.419,1.014,2.059,4.973,1.265,3.053,4.584,11.144v.017Z" transform="translate(-354.124 -294.339)" fill="#983f46"/>
        </g>
      </g>
    </g>
    <path id="Path_18700" data-name="Path 18700" d="M383.35,317.128h-35.08l4.585-11.144h25.909Z" transform="translate(859.955 1407.514)" fill="#fff"/>
    <path id="Path_18701" data-name="Path 18701" d="M396.038,326.76v.015H344.3v-.015l4.587-11.144h42.567Z" transform="translate(855.597 1418.066)" fill="#fff"/>
    <path id="Path_18702" data-name="Path 18702" d="M372.914,317.128H362.369l-4.587-11.144h10.545Z" transform="translate(870.391 1407.514)" fill="#e6f5ff"/>
    <path id="Path_18703" data-name="Path 18703" d="M376.886,326.76v.015H366.341v-.015l-4.587-11.144H372.3Z" transform="translate(874.749 1418.066)" fill="#e6f5ff"/>
    <path id="Path_18704" data-name="Path 18704" d="M351.579,141.268c17.587,0,18.56-26.446.994-27.3q-.72-.035-1.447-.036a29.362,29.362,0,0,0-8.989,1.406,30.178,30.178,0,0,0-59.684.951,27.949,27.949,0,0,0-18.965-1.842c-15.379,3.959-12.151,26.819,3.729,26.819Z" transform="translate(755.96 1170.997)" fill="#0cf"/>
    <path id="Path_18705" data-name="Path 18705" d="M232.8,198.465a14,14,0,0,0,13.953-11.944,27.794,27.794,0,0,0-27.55-31.565c-.629,0-1.253.029-1.872.071a29.536,29.536,0,0,0-58.966,2.5c0,.723.037,1.438.086,2.148a29.541,29.541,0,0,0-43.841,23.639l-.024.354a14.072,14.072,0,0,0,14.108,14.8Z" transform="translate(603.532 1198.442)" fill="#0cf"/>
    <g id="Path_18658" data-name="Path 18658" transform="translate(496.255 1306.637)" fill="#fff">
      <path d="M 197.1057891845703 220.6011810302734 L 196.7972106933594 220.5905303955078 C 193.4759216308594 220.4761199951172 192.5980529785156 220.1160888671875 192.1773529052734 219.7789916992188 C 191.8899841308594 219.5467681884766 191.7713928222656 219.1815795898438 191.8662567138672 218.8246154785156 C 191.9607543945312 218.4690093994141 192.2557983398438 218.2014312744141 192.6178894042969 218.1429290771484 L 193.0110626220703 218.0781860351562 C 192.4422302246094 217.6588134765625 192.0273590087891 217.2812805175781 191.7177886962891 216.9064636230469 C 191.0579376220703 216.1075134277344 190.8823547363281 215.2957611083984 191.1959381103516 214.4937744140625 C 191.4784545898438 213.7726593017578 192.2279663085938 213.4071807861328 193.4237823486328 213.4071807861328 C 195.7998199462891 213.4071807861328 199.421630859375 214.8377685546875 199.5746307373047 214.8986663818359 L 200.0985870361328 215.1071929931641 L 199.8288269042969 215.6024017333984 L 197.2535095214844 220.3300170898438 L 197.1057891845703 220.6011810302734 Z" stroke="none"/>
      <path d="M 193.4237823486328 213.9071807861328 C 192.5580291748047 213.9071807861328 191.8824615478516 214.1121368408203 191.6616058349609 214.6758575439453 C 191.1331024169922 216.0274963378906 192.4794769287109 217.1926422119141 194.3271179199219 218.3681945800781 L 192.6976318359375 218.6365203857422 C 192.3347930908203 218.6951446533203 192.2047882080078 219.1583099365234 192.4900054931641 219.3887939453125 C 192.9450836181641 219.7534332275391 194.1992034912109 220.000732421875 196.8144226074219 220.0908355712891 L 199.3897399902344 215.3632202148438 C 199.3897399902344 215.3632202148438 195.7312927246094 213.9071807861328 193.4237823486328 213.9071807861328 M 193.4237823486328 212.9071807861328 C 195.8945770263672 212.9071807861328 199.6028747558594 214.3717651367188 199.759521484375 214.4341125488281 L 200.8074340820312 214.8511657714844 L 197.3971710205078 221.1115112304688 L 196.7799987792969 221.0902404785156 C 193.3217163085938 220.9710998535156 192.3738708496094 220.5771484375 191.8647003173828 220.169189453125 C 191.4268035888672 219.8153076171875 191.2389984130859 219.2381591796875 191.3830261230469 218.6961822509766 C 191.4736480712891 218.355224609375 191.6844635009766 218.0669555664062 191.9655609130859 217.8766174316406 C 191.7188415527344 217.6556091308594 191.5103607177734 217.4404754638672 191.3322906494141 217.2248687744141 C 190.3556365966797 216.0423583984375 190.4658355712891 214.9879760742188 190.7302703857422 214.3116912841797 C 190.9814300537109 213.6706085205078 191.6523742675781 212.9071807861328 193.4237823486328 212.9071807861328 Z" stroke="none" fill="#0e0268"/>
    </g>
    <g id="Group_11976" data-name="Group 11976" transform="translate(742.9 1658.953)" opacity="0.56">
      <g id="Group_11975" data-name="Group 11975">
        <g id="Group_11974" data-name="Group 11974" clip-path="url(#clip-path-8)">
          <path id="Path_18669" data-name="Path 18669" d="M126.39,280.341c.193-.243.31-.386.31-.386a1.718,1.718,0,0,0-.31.386" transform="translate(-126.39 -279.955)" fill="#5c87c7"/>
        </g>
      </g>
    </g>
    <g id="Mask_Group_17" data-name="Mask Group 17" clip-path="url(#clip-path-9)">
      <path id="Path_18706" data-name="Path 18706" d="M491.313,162.83,225.247,131.8a20.724,20.724,0,0,0-22.991,18.171L182.4,319.976a20.715,20.715,0,0,0,18.185,22.974l266.066,31.031A20.724,20.724,0,0,0,489.64,355.81L509.5,185.8a20.715,20.715,0,0,0-18.185-22.974" transform="translate(690.256 1228.525)" fill="#0e0268" stroke="rgba(0,0,0,0)" stroke-width="1" opacity="0.3"/>
    </g>
    <g id="Group_12007" data-name="Group 12007" transform="translate(0 -22.449)">
      <path id="Path_18643" data-name="Path 18643" d="M491.313,162.83,225.247,131.8a20.724,20.724,0,0,0-22.991,18.171L182.4,319.976a20.715,20.715,0,0,0,18.185,22.974l266.066,31.031A20.724,20.724,0,0,0,489.64,355.81L509.5,185.8a20.715,20.715,0,0,0-18.185-22.974" transform="translate(677.805 1216.527)" fill="#fff" stroke="rgba(0,0,0,0)" stroke-width="1"/>
      <path id="Path_18644" data-name="Path 18644" d="M498.1,202.632l1.965-16.827a20.715,20.715,0,0,0-18.185-22.974L215.812,131.8A20.724,20.724,0,0,0,192.82,149.97L190.855,166.8Z" transform="translate(687.24 1216.527)" fill="#0e0268"/>
      <path id="Path_18645" data-name="Path 18645" d="M8.268,4.624A4.148,4.148,0,1,1,4.63.028a4.146,4.146,0,0,1,3.638,4.6" transform="matrix(0.996, 0.087, -0.087, 0.996, 900.332, 1363.828)" fill="#fff"/>
      <path id="Path_18646" data-name="Path 18646" d="M8.267,4.624A4.148,4.148,0,1,1,4.63.028a4.146,4.146,0,0,1,3.638,4.6" transform="matrix(0.996, 0.087, -0.087, 0.996, 915.841, 1365.932)" fill="#fff"/>
      <path id="Path_18647" data-name="Path 18647" d="M8.268,4.625A4.148,4.148,0,1,1,4.63.028a4.146,4.146,0,0,1,3.638,4.6" transform="matrix(0.996, 0.087, -0.087, 0.996, 930.675, 1367.229)" fill="#fff"/>
      <path id="Path_18648" data-name="Path 18648" d="M209.249,233.947l38.429-66.893,17.9,2.175L257,239.752l7.76.943L262.941,255.6l-7.762-.943-2.3,18.934-16.115-1.957,2.3-18.936-31.632-3.845Zm31.632,3.845,4.773-39.212-21.333,37.2Z" transform="translate(705.432 1255.308)" fill="#e90053"/>
      <path id="Path_18649" data-name="Path 18649" d="M250.78,193.96c2.032-16.7,12-25.17,28.111-23.211s23.757,12.571,21.723,29.267l-6.606,54.269c-2.032,16.7-12,25.172-28.111,23.215s-23.755-12.571-21.725-29.271Zm9.679,57.308c-.908,7.456,2.032,10.69,7.252,11.322s8.85-1.8,9.756-9.254l6.862-56.354c.906-7.456-2.03-10.69-7.252-11.322s-8.85,1.8-9.758,9.254Z" transform="translate(745.387 1259.053)" fill="#e90053"/>
      <path id="Path_18650" data-name="Path 18650" d="M279.259,242.463l38.427-66.893,17.9,2.175-8.584,70.522,7.759.943-1.814,14.908-7.762-.943-2.3,18.934-16.115-1.957,2.3-18.936-31.632-3.845Zm31.632,3.845,4.773-39.212-21.335,37.2Z" transform="translate(782.245 1264.638)" fill="#e90053"/>
    </g>
    <path id="Path_18733" data-name="Path 18733" d="M36.412,13.833V60.96M24.667,49.893l3.441,2.588a14.612,14.612,0,0,0,16.608,0c4.589-3.452,4.589-9.044,0-12.5a13.884,13.884,0,0,0-8.3-2.588,12.645,12.645,0,0,1-7.842-2.588c-4.33-3.452-4.33-9.044,0-12.5a13.171,13.171,0,0,1,15.684,0l1.625,1.3" transform="translate(1304.622 1558.324)" fill="none" stroke="#0e0268" stroke-linecap="round" stroke-linejoin="round" stroke-width="3"/>
    <g id="Group_12023" data-name="Group 12023" transform="translate(1216.875 1311.621)">
      <line id="Line_1" data-name="Line 1" y2="12.927" transform="translate(18.523)" fill="none" stroke="#e90053" stroke-width="4"/>
      <line id="Line_2" data-name="Line 2" x1="9.13" y2="9.141" transform="translate(22.347 5.445)" fill="none" stroke="#e90053" stroke-width="4"/>
      <line id="Line_3" data-name="Line 3" x1="12.911" transform="translate(23.846 18.5)" fill="none" stroke="#e90053" stroke-width="4"/>
      <line id="Line_4" data-name="Line 4" x1="9.13" y1="9.141" transform="translate(22.143 22.329)" fill="none" stroke="#e90053" stroke-width="4"/>
      <line id="Line_5" data-name="Line 5" y1="12.927" transform="translate(18.236 23.831)" fill="none" stroke="#e90053" stroke-width="4"/>
      <line id="Line_6" data-name="Line 6" y1="9.141" x2="9.13" transform="translate(5.282 22.125)" fill="none" stroke="#e90053" stroke-width="4"/>
      <line id="Line_7" data-name="Line 7" x2="12.911" transform="translate(0 18.212)" fill="none" stroke="#e90053" stroke-width="4"/>
      <line id="Line_8" data-name="Line 8" x2="9.13" y2="9.141" transform="translate(5.485 5.242)" fill="none" stroke="#e90053" stroke-width="4"/>
    </g>
    <path id="Path_18734" data-name="Path 18734" d="M1872.764,393.425h0a19.834,19.834,0,1,1,5.809,14.024,19.771,19.771,0,0,1-5.809-14.024m12.125,7.708a10.9,10.9,0,1,0-3.193-7.708,10.867,10.867,0,0,0,3.193,7.708" transform="translate(-1189.89 1049.953)" fill="#3b28cc"/>
    <path id="Path_18735" data-name="Path 18735" d="M1298.809,1288.26a7.833,7.833,0,1,1-7.833-7.834,7.834,7.834,0,0,1,7.833,7.834" transform="translate(-445.769 -12.714)" fill="#3b28cc"/>
  </g>
</svg>
