<svg xmlns="http://www.w3.org/2000/svg" xmlns:xlink="http://www.w3.org/1999/xlink" width="322.186" height="238.001" viewBox="0 0 322.186 238.001">
  <defs>
    <clipPath id="clip-path">
      <rect id="Rectangle_6208" data-name="Rectangle 6208" width="322.186" height="238.001" fill="none" stroke="#fff" stroke-width="1"/>
    </clipPath>
    <clipPath id="clip-path-3">
      <rect id="Rectangle_6210" data-name="Rectangle 6210" width="322.186" height="238.001" fill="none" stroke="#e90053" stroke-width="5"/>
    </clipPath>
  </defs>
  <g id="Group_12024" data-name="Group 12024" transform="translate(-201 -161.293)">
    <path id="Path_18738" data-name="Path 18738" d="M152.214,214.248c0,2.5-34.074,4.535-76.106,4.535S0,216.753,0,214.248s34.074-4.535,76.107-4.535,76.106,2.031,76.106,4.535" transform="translate(288.666 177.041)" fill="#0e0268" opacity="0.39"/>
    <g id="Group_12022" data-name="Group 12022" transform="translate(201 161.293)">
      <line id="Line_272" data-name="Line 272" x2="34.999" transform="translate(17.439 114.711)" fill="none" stroke="#fff" stroke-linecap="round" stroke-linejoin="round" stroke-width="2.163"/>
      <line id="Line_273" data-name="Line 273" x2="7.471" transform="translate(60.84 114.711)" fill="none" stroke="#fff" stroke-linecap="round" stroke-linejoin="round" stroke-width="2.163"/>
      <line id="Line_274" data-name="Line 274" x2="62.657" transform="translate(11.101 104.865)" fill="none" stroke="#fff" stroke-linecap="round" stroke-linejoin="round" stroke-width="2.163"/>
      <g id="Group_12017" data-name="Group 12017">
        <g id="Group_12016" data-name="Group 12016" clip-path="url(#clip-path)">
          <line id="Line_275" data-name="Line 275" x1="5.157" transform="translate(0.786 104.865)" fill="none" stroke="#fff" stroke-linecap="round" stroke-linejoin="round" stroke-width="2.163"/>
        </g>
      </g>
      <line id="Line_276" data-name="Line 276" x2="20.802" transform="translate(11.101 95.512)" fill="none" stroke="#fff" stroke-linecap="round" stroke-linejoin="round" stroke-width="2.163"/>
      <line id="Line_277" data-name="Line 277" x2="43.688" transform="translate(37.472 95.512)" fill="none" stroke="#fff" stroke-linecap="round" stroke-linejoin="round" stroke-width="2.163"/>
      <line id="Line_278" data-name="Line 278" x2="37.454" transform="translate(264.836 192.821)" fill="none" stroke="#fff" stroke-linecap="round" stroke-linejoin="round" stroke-width="2.163"/>
      <line id="Line_279" data-name="Line 279" x2="5.418" transform="translate(308.382 192.821)" fill="none" stroke="#fff" stroke-linecap="round" stroke-linejoin="round" stroke-width="2.163"/>
      <g id="Group_12019" data-name="Group 12019">
        <g id="Group_12018" data-name="Group 12018" clip-path="url(#clip-path)">
          <line id="Line_280" data-name="Line 280" x2="49.084" transform="translate(272.316 182.976)" fill="none" stroke="#fff" stroke-linecap="round" stroke-linejoin="round" stroke-width="2.163"/>
        </g>
      </g>
      <line id="Line_281" data-name="Line 281" x1="3.739" transform="translate(264.837 182.976)" fill="none" stroke="#fff" stroke-linecap="round" stroke-linejoin="round" stroke-width="2.163"/>
      <line id="Line_282" data-name="Line 282" x2="22.563" transform="translate(264.836 173.622)" fill="none" stroke="#fff" stroke-linecap="round" stroke-linejoin="round" stroke-width="2.163"/>
      <line id="Line_283" data-name="Line 283" x2="16.944" transform="translate(291.438 173.622)" fill="none" stroke="#fff" stroke-linecap="round" stroke-linejoin="round" stroke-width="2.163"/>
      <line id="Line_284" data-name="Line 284" y1="8.022" transform="translate(281.182 104.555)" fill="none" stroke="#fff" stroke-linecap="round" stroke-linejoin="round" stroke-width="2.163"/>
      <line id="Line_285" data-name="Line 285" x1="5.676" y1="5.673" transform="translate(269.903 109.224)" fill="none" stroke="#fff" stroke-linecap="round" stroke-linejoin="round" stroke-width="2.163"/>
      <line id="Line_286" data-name="Line 286" x1="8.026" transform="translate(265.232 120.496)" fill="none" stroke="#fff" stroke-linecap="round" stroke-linejoin="round" stroke-width="2.163"/>
      <line id="Line_287" data-name="Line 287" x1="5.676" y2="5.672" transform="translate(269.903 126.096)" fill="none" stroke="#fff" stroke-linecap="round" stroke-linejoin="round" stroke-width="2.163"/>
      <line id="Line_288" data-name="Line 288" y2="8.022" transform="translate(281.182 128.415)" fill="none" stroke="#fff" stroke-linecap="round" stroke-linejoin="round" stroke-width="2.163"/>
      <line id="Line_289" data-name="Line 289" x2="5.676" y2="5.672" transform="translate(286.784 126.096)" fill="none" stroke="#fff" stroke-linecap="round" stroke-linejoin="round" stroke-width="2.163"/>
      <line id="Line_290" data-name="Line 290" x2="8.026" transform="translate(289.105 120.496)" fill="none" stroke="#fff" stroke-linecap="round" stroke-linejoin="round" stroke-width="2.163"/>
      <line id="Line_291" data-name="Line 291" y1="5.673" x2="5.676" transform="translate(286.784 109.224)" fill="none" stroke="#fff" stroke-linecap="round" stroke-linejoin="round" stroke-width="2.163"/>
      <line id="Line_292" data-name="Line 292" y1="5.798" transform="translate(29.444 146.722)" fill="none" stroke="#fff" stroke-linecap="round" stroke-linejoin="round" stroke-width="2.163"/>
      <line id="Line_293" data-name="Line 293" x1="4.102" y1="4.1" transform="translate(21.292 150.097)" fill="none" stroke="#fff" stroke-linecap="round" stroke-linejoin="round" stroke-width="2.163"/>
      <line id="Line_294" data-name="Line 294" x1="5.801" transform="translate(17.915 158.245)" fill="none" stroke="#fff" stroke-linecap="round" stroke-linejoin="round" stroke-width="2.163"/>
      <line id="Line_295" data-name="Line 295" x1="4.102" y2="4.1" transform="translate(21.292 162.293)" fill="none" stroke="#fff" stroke-linecap="round" stroke-linejoin="round" stroke-width="2.163"/>
      <line id="Line_296" data-name="Line 296" y2="5.798" transform="translate(29.444 163.969)" fill="none" stroke="#fff" stroke-linecap="round" stroke-linejoin="round" stroke-width="2.163"/>
      <line id="Line_297" data-name="Line 297" x2="4.102" y2="4.1" transform="translate(33.494 162.293)" fill="none" stroke="#fff" stroke-linecap="round" stroke-linejoin="round" stroke-width="2.163"/>
      <line id="Line_298" data-name="Line 298" x2="5.801" transform="translate(35.171 158.245)" fill="none" stroke="#fff" stroke-linecap="round" stroke-linejoin="round" stroke-width="2.163"/>
      <line id="Line_299" data-name="Line 299" y1="4.1" x2="4.102" transform="translate(33.494 150.097)" fill="none" stroke="#fff" stroke-linecap="round" stroke-linejoin="round" stroke-width="2.163"/>
      <line id="Line_300" data-name="Line 300" y1="5.798" transform="translate(186.437 26.954)" fill="none" stroke="#fff" stroke-linecap="round" stroke-linejoin="round" stroke-width="2.163"/>
      <line id="Line_301" data-name="Line 301" x1="4.102" y1="4.1" transform="translate(178.285 30.329)" fill="none" stroke="#fff" stroke-linecap="round" stroke-linejoin="round" stroke-width="2.163"/>
      <line id="Line_302" data-name="Line 302" x1="5.801" transform="translate(174.909 38.476)" fill="none" stroke="#fff" stroke-linecap="round" stroke-linejoin="round" stroke-width="2.163"/>
      <line id="Line_303" data-name="Line 303" x1="4.102" y2="4.1" transform="translate(178.285 42.524)" fill="none" stroke="#fff" stroke-linecap="round" stroke-linejoin="round" stroke-width="2.163"/>
      <line id="Line_304" data-name="Line 304" y2="5.798" transform="translate(186.437 44.201)" fill="none" stroke="#fff" stroke-linecap="round" stroke-linejoin="round" stroke-width="2.163"/>
      <line id="Line_305" data-name="Line 305" x2="4.102" y2="4.1" transform="translate(190.487 42.524)" fill="none" stroke="#fff" stroke-linecap="round" stroke-linejoin="round" stroke-width="2.163"/>
      <line id="Line_306" data-name="Line 306" x2="5.801" transform="translate(192.165 38.476)" fill="none" stroke="#fff" stroke-linecap="round" stroke-linejoin="round" stroke-width="2.163"/>
      <line id="Line_307" data-name="Line 307" y1="4.1" x2="4.102" transform="translate(190.487 30.329)" fill="none" stroke="#fff" stroke-linecap="round" stroke-linejoin="round" stroke-width="2.163"/>
      <path id="Path_18723" data-name="Path 18723" d="M101.443,102.577V77.486H231.95v55.751" transform="translate(-27.685 -21.177)" fill="none" stroke="#fff" stroke-linecap="round" stroke-linejoin="round" stroke-width="2.163"/>
      <path id="Path_18724" data-name="Path 18724" d="M217.671,52.947V84.362h86.543V98.655" transform="translate(-59.406 -14.471)" fill="none" stroke="#fff" stroke-linecap="round" stroke-linejoin="round" stroke-width="2.163"/>
      <g id="Group_12021" data-name="Group 12021">
        <g id="Mask_Group_12020" data-name="Mask Group 12020" clip-path="url(#clip-path-3)">
          <path id="Path_18725" data-name="Path 18725" d="M103.388,115.126a3.114,3.114,0,1,1-3.114-3.112A3.113,3.113,0,0,1,103.388,115.126Z" transform="translate(-26.516 -30.614)" fill="none" stroke="#fff" stroke-linecap="round" stroke-linejoin="round" stroke-width="2.163"/>
          <ellipse id="Ellipse_2957" data-name="Ellipse 2957" cx="3.113" cy="3.114" rx="3.113" ry="3.114" transform="matrix(0.383, -0.924, 0.924, 0.383, 154.197, 37.048)" fill="none" stroke="#fff" stroke-linecap="round" stroke-linejoin="round" stroke-width="2.163"/>
          <ellipse id="Ellipse_2958" data-name="Ellipse 2958" cx="3.114" cy="3.112" rx="3.114" ry="3.112" transform="translate(241.695 84.513)" fill="none" stroke="#fff" stroke-linecap="round" stroke-linejoin="round" stroke-width="2.163"/>
          <ellipse id="Ellipse_2959" data-name="Ellipse 2959" cx="3.114" cy="3.112" rx="3.114" ry="3.112" transform="translate(201.151 112.577)" fill="none" stroke="#fff" stroke-linecap="round" stroke-linejoin="round" stroke-width="2.163"/>
          <line id="Line_308" data-name="Line 308" x1="7.368" y2="7.364" transform="translate(46.094 178.026)" fill="none" stroke="#e90053" stroke-linecap="round" stroke-linejoin="round" stroke-width="5"/>
          <line id="Line_309" data-name="Line 309" x2="7.368" y2="7.364" transform="translate(46.094 178.026)" fill="none" stroke="#e90053" stroke-linecap="round" stroke-linejoin="round" stroke-width="5"/>
          <line id="Line_310" data-name="Line 310" x1="7.368" y2="7.364" transform="translate(49.778 71.083)" fill="none" stroke="#e90053" stroke-linecap="round" stroke-linejoin="round" stroke-width="5"/>
          <line id="Line_311" data-name="Line 311" x2="7.368" y2="7.364" transform="translate(49.778 71.083)" fill="none" stroke="#e90053" stroke-linecap="round" stroke-linejoin="round" stroke-width="5"/>
          <line id="Line_312" data-name="Line 312" x1="7.368" y2="7.364" transform="translate(288.776 154.563)" fill="none" stroke="#e90053" stroke-linecap="round" stroke-linejoin="round" stroke-width="5"/>
          <line id="Line_313" data-name="Line 313" x2="7.368" y2="7.364" transform="translate(288.775 154.563)" fill="none" stroke="#e90053" stroke-linecap="round" stroke-linejoin="round" stroke-width="5"/>
          <path id="Path_18726" data-name="Path 18726" d="M104.337,37.5a9.574,9.574,0,0,0-6.171,2.245,12.9,12.9,0,0,0-24.961,1.9,7.683,7.683,0,1,0-3.119,15v.072h34.251a9.608,9.608,0,1,0,0-19.216Z" transform="translate(-17.302 -8.447)" fill="none" stroke="#fff" stroke-linecap="round" stroke-linejoin="round" stroke-width="2.261"/>
          <path id="Path_18727" data-name="Path 18727" d="M362.218,105.432a6.955,6.955,0,0,1,4.482,1.631,9.372,9.372,0,0,1,18.133,1.379,5.582,5.582,0,1,1,2.266,10.9v.053H362.218a6.98,6.98,0,1,1,0-13.961Z" transform="translate(-96.948 -27.506)" fill="none" stroke="#fff" stroke-linecap="round" stroke-linejoin="round" stroke-width="2.163"/>
          <path id="Path_18728" data-name="Path 18728" d="M402.661,287.418a5.836,5.836,0,0,0-3.76,1.368,7.86,7.86,0,0,0-15.208,1.156,4.681,4.681,0,1,0-1.9,9.14v.044h20.867a5.854,5.854,0,1,0,0-11.708Z" transform="translate(-103.084 -77.455)" fill="none" stroke="#fff" stroke-linecap="round" stroke-linejoin="round" stroke-width="2.163"/>
          <path id="Path_18729" data-name="Path 18729" d="M19.867,270.129a6.957,6.957,0,0,1,4.483,1.631,9.372,9.372,0,0,1,18.134,1.379,5.582,5.582,0,1,1,2.266,10.9v.053H19.867a6.98,6.98,0,1,1,0-13.961Z" transform="translate(-3.516 -72.519)" fill="none" stroke="#fff" stroke-linecap="round" stroke-linejoin="round" stroke-width="2.163"/>
          <path id="Path_18730" data-name="Path 18730" d="M132.927,24.737S176.872-11.072,236.58,5.425c62.721,17.329,75.277,62.029,75.277,62.029" transform="translate(-36.278 -0.296)" fill="none" stroke="#12b3f9" stroke-linecap="round" stroke-linejoin="round" stroke-width="2.163" stroke-dasharray="3.268 7.624"/>
          <path id="Path_18731" data-name="Path 18731" d="M35.152,176.856c-17.036,2.641-25.6,38.779-6.438,53.124" transform="translate(-4.857 -48.336)" fill="none" stroke="#12b3f9" stroke-linecap="round" stroke-linejoin="round" stroke-width="2.017" stroke-dasharray="3.047 7.109"/>
          <path id="Path_18732" data-name="Path 18732" d="M336.7,318.447s29.184,12.751,41.976-5.038" transform="translate(-91.89 -85.656)" fill="none" stroke="#12b3f9" stroke-linecap="round" stroke-linejoin="round" stroke-width="2.163" stroke-dasharray="3.268 7.624"/>
          <line id="Line_314" data-name="Line 314" y1="18.419" transform="translate(105.971 69.206)" fill="none" stroke="#fff" stroke-linecap="round" stroke-linejoin="round" stroke-width="2.163"/>
          <line id="Line_315" data-name="Line 315" y1="9.178" transform="translate(101.523 78.447)" fill="none" stroke="#fff" stroke-linecap="round" stroke-linejoin="round" stroke-width="2.163"/>
          <line id="Line_316" data-name="Line 316" y1="13.47" transform="translate(173.705 78.416)" fill="none" stroke="#fff" stroke-linecap="round" stroke-linejoin="round" stroke-width="2.163"/>
          <line id="Line_317" data-name="Line 317" y1="5.587" transform="translate(168.651 85.151)" fill="none" stroke="#fff" stroke-linecap="round" stroke-linejoin="round" stroke-width="2.163"/>
          <line id="Line_318" data-name="Line 318" y1="9.338" transform="translate(164.168 81.4)" fill="none" stroke="#fff" stroke-linecap="round" stroke-linejoin="round" stroke-width="2.163"/>
          <line id="Line_319" data-name="Line 319" y1="9.209" transform="translate(110.247 78.416)" fill="none" stroke="#fff" stroke-linecap="round" stroke-linejoin="round" stroke-width="2.163"/>
          <line id="Line_320" data-name="Line 320" y1="4.12" transform="translate(232.398 86.069)" fill="none" stroke="#fff" stroke-linecap="round" stroke-linejoin="round" stroke-width="2.163"/>
          <line id="Line_321" data-name="Line 321" y1="10.036" transform="translate(227.95 80.153)" fill="none" stroke="#fff" stroke-linecap="round" stroke-linejoin="round" stroke-width="2.163"/>
          <line id="Line_322" data-name="Line 322" y1="7.168" transform="translate(236.674 83.02)" fill="none" stroke="#fff" stroke-linecap="round" stroke-linejoin="round" stroke-width="2.163"/>
        </g>
      </g>
    </g>
    <path id="Path_18709" data-name="Path 18709" d="M2.478,159.972v15.564a2.712,2.712,0,0,0,2.707,2.7H148.246a2.711,2.711,0,0,0,2.707-2.7V159.972Z" transform="translate(288.057 189.284)" fill="#f0f0f0"/>
    <path id="Path_18710" data-name="Path 18710" d="M150.953,45.055a2.712,2.712,0,0,0-2.707-2.706H5.185a2.714,2.714,0,0,0-2.708,2.706v85.966H150.953Z" transform="translate(288.057 218.234)" fill="#0e0268"/>
    <rect id="Rectangle_6202" data-name="Rectangle 6202" width="51.069" height="15.67" transform="translate(339.553 367.524)" fill="#d6d6d6"/>
    <rect id="Rectangle_6203" data-name="Rectangle 6203" width="74.912" height="7.337" transform="translate(327.28 383.195)" fill="#f0f0f0"/>
    <rect id="Rectangle_6204" data-name="Rectangle 6204" width="51.069" height="5.664" transform="translate(339.553 367.524)" fill="#bdbdbd"/>
    <rect id="Rectangle_6205" data-name="Rectangle 6205" width="133.153" height="73.022" transform="translate(298.211 268.303)" fill="#12b3f9"/>
    <path id="Path_18711" data-name="Path 18711" d="M74.946,71.589,65.68,80.85l-9.266-9.261-3.707,3.7,9.266,9.261-9.266,9.26,3.707,3.7,9.266-9.26,9.266,9.26,3.707-3.7-9.266-9.26,9.266-9.261Z" transform="translate(275.714 211.037)" fill="#3b28cc" opacity="0.4"/>
    <path id="Path_18712" data-name="Path 18712" d="M140.641,75.293l-3.707-3.7-9.266,9.261L118.4,71.589l-3.707,3.7,9.266,9.261-9.266,9.26,3.707,3.7,9.266-9.26,9.266,9.26,3.707-3.7-9.266-9.26Z" transform="translate(260.482 211.037)" fill="#3b28cc" opacity="0.4"/>
    <path id="Path_18713" data-name="Path 18713" d="M113.455,132.551c-19.607-13.531-39.469-.137-39.669,0l-2.571-3.722c.223-.155,22.664-15.285,44.81,0Z" transform="translate(271.166 198.63)" fill="#3b28cc" opacity="0.4"/>
    <rect id="Rectangle_6206" data-name="Rectangle 6206" width="200.778" height="167.167" transform="translate(288.666 228.657)" fill="none"/>
    <rect id="Rectangle_6207" data-name="Rectangle 6207" width="200.778" height="167.167" transform="translate(288.666 228.657)" fill="none"/>
    <g id="Group_12025" data-name="Group 12025" transform="translate(416.239 228.657)">
      <path id="Path_18737" data-name="Path 18737" d="M239.334,0H172.2a3.016,3.016,0,0,0-3.017,3.015V46.346a3.016,3.016,0,0,0,3.017,3.015h7.773l-10.79,11.925,28.953-11.925h41.195a3.016,3.016,0,0,0,3.017-3.015V3.015A3.016,3.016,0,0,0,239.334,0" transform="translate(-169.186 7.782)" fill="#0e0268" opacity="0.32"/>
      <path id="Path_18714" data-name="Path 18714" d="M239.334,0H172.2a3.016,3.016,0,0,0-3.017,3.015V46.346a3.016,3.016,0,0,0,3.017,3.015h7.773l-7.648,14.49,25.811-14.49h41.195a3.016,3.016,0,0,0,3.017-3.015V3.015A3.016,3.016,0,0,0,239.334,0" transform="translate(-169.146)" fill="#fff"/>
      <path id="Path_18718" data-name="Path 18718" d="M197.284,49.715a.276.276,0,0,1,.2.085.272.272,0,0,1,.085.2v.383a.276.276,0,0,1-.085.2.282.282,0,0,1-.2.085h-4.3a.285.285,0,0,1-.2-.085.28.28,0,0,1-.084-.2V43.509a.287.287,0,0,1,.287-.288H197.2a.291.291,0,0,1,.287.288v.382a.292.292,0,0,1-.287.287H193.7v2.247h3.26a.29.29,0,0,1,.287.287V47.1a.291.291,0,0,1-.287.288H193.7v2.332Z" transform="translate(-169.922 -33.88)" fill="#0e0268"/>
      <path id="Path_18719" data-name="Path 18719" d="M205.329,43.22a3.683,3.683,0,0,1,.986.127,2.362,2.362,0,0,1,.815.4,1.914,1.914,0,0,1,.56.681,2.21,2.21,0,0,1,.207,1,2.061,2.061,0,0,1-.431,1.374,2.336,2.336,0,0,1-1.1.724l1.607,2.8a.259.259,0,0,1,.032.117.226.226,0,0,1-.069.165.223.223,0,0,1-.165.069h-.458a.413.413,0,0,1-.314-.107,1.011,1.011,0,0,1-.144-.181l-1.544-2.715h-1.833v2.715a.287.287,0,0,1-.287.288h-.436a.282.282,0,0,1-.2-.084.28.28,0,0,1-.084-.2V43.508a.288.288,0,0,1,.287-.288Zm-1.853,3.492h1.8a2.009,2.009,0,0,0,1.187-.3,1.131,1.131,0,0,0,.422-.985,1.071,1.071,0,0,0-.422-.963,2.114,2.114,0,0,0-1.187-.283h-1.8Z" transform="translate(-172.323 -33.88)" fill="#0e0268"/>
      <path id="Path_18720" data-name="Path 18720" d="M215.934,43.22a3.687,3.687,0,0,1,.986.127,2.362,2.362,0,0,1,.815.4,1.914,1.914,0,0,1,.56.681,2.22,2.22,0,0,1,.207,1,2.061,2.061,0,0,1-.431,1.374,2.336,2.336,0,0,1-1.1.724l1.607,2.8a.259.259,0,0,1,.032.117.226.226,0,0,1-.069.165.223.223,0,0,1-.165.069h-.458a.413.413,0,0,1-.314-.107,1.056,1.056,0,0,1-.145-.181l-1.543-2.715h-1.833v2.715a.287.287,0,0,1-.287.288h-.436a.285.285,0,0,1-.2-.084.282.282,0,0,1-.084-.2V43.508a.287.287,0,0,1,.287-.288Zm-1.853,3.492h1.8a2.011,2.011,0,0,0,1.187-.3,1.13,1.13,0,0,0,.421-.985,1.07,1.07,0,0,0-.421-.963,2.116,2.116,0,0,0-1.187-.283h-1.8Z" transform="translate(-174.929 -33.88)" fill="#0e0268"/>
      <path id="Path_18721" data-name="Path 18721" d="M223.3,45.964a3.362,3.362,0,0,1,.207-1.123,2.63,2.63,0,0,1,.57-.915,2.706,2.706,0,0,1,.916-.618,3.511,3.511,0,0,1,2.491,0,2.714,2.714,0,0,1,.916.618,2.618,2.618,0,0,1,.569.915,3.363,3.363,0,0,1,.208,1.123q.033.948,0,1.894a3.569,3.569,0,0,1-.218,1.123,2.7,2.7,0,0,1-.57.921,2.638,2.638,0,0,1-.91.617,3.552,3.552,0,0,1-2.482,0,2.631,2.631,0,0,1-.91-.617,2.7,2.7,0,0,1-.57-.921,3.547,3.547,0,0,1-.218-1.123q-.031-.948,0-1.894m4.867.054a2.77,2.77,0,0,0-.165-.873,1.616,1.616,0,0,0-1-.985,2.435,2.435,0,0,0-1.523,0,1.668,1.668,0,0,0-.6.367,1.726,1.726,0,0,0-.405.618,2.49,2.49,0,0,0-.159.873q-.023.478-.023.894t.023.893a2.49,2.49,0,0,0,.159.873,1.719,1.719,0,0,0,.405.618,1.657,1.657,0,0,0,.6.367,2.435,2.435,0,0,0,1.523,0,1.616,1.616,0,0,0,1-.985,2.77,2.77,0,0,0,.165-.873q.023-.478.022-.893t-.022-.894" transform="translate(-177.44 -33.845)" fill="#0e0268"/>
      <path id="Path_18736" data-name="Path 18736" d="M6.922-16.792a8.191,8.191,0,0,1-3.378-.663A6.577,6.577,0,0,1,1.05-19.391l2.027-2.027a3.819,3.819,0,0,0,1.546,1.325A5.01,5.01,0,0,0,6.87-19.6a4.536,4.536,0,0,0,2-.416,3.233,3.233,0,0,0,1.351-1.2,3.375,3.375,0,0,0,.494-1.845,3.347,3.347,0,0,0-.481-1.858,3.054,3.054,0,0,0-1.273-1.117,3.913,3.913,0,0,0-1.7-.377,6.768,6.768,0,0,0-1.858.234,4.8,4.8,0,0,0-1.6.831l.078-1.871a3.766,3.766,0,0,1,.961-.9,4.236,4.236,0,0,1,1.273-.533,7.131,7.131,0,0,1,1.715-.182,6.076,6.076,0,0,1,3.235.805,5.258,5.258,0,0,1,1.988,2.144A6.506,6.506,0,0,1,13.73-22.9a5.759,5.759,0,0,1-.87,3.144,6.079,6.079,0,0,1-2.4,2.17A7.587,7.587,0,0,1,6.922-16.792ZM3.8-25.341,2.167-26.978l.805-8.263H5.7l-.935,8.6Zm-.312-7.223-.52-2.676h9.744v2.676ZM23.213-16.792a6.538,6.538,0,0,1-3.755-1.156,8.058,8.058,0,0,1-2.715-3.261,11.329,11.329,0,0,1-1.013-4.963,11.369,11.369,0,0,1,1-4.95,7.924,7.924,0,0,1,2.689-3.235A6.529,6.529,0,0,1,23.161-35.5a6.571,6.571,0,0,1,3.768,1.143,7.924,7.924,0,0,1,2.689,3.235,11.434,11.434,0,0,1,1,4.976,11.455,11.455,0,0,1-1,4.963,7.949,7.949,0,0,1-2.676,3.248A6.469,6.469,0,0,1,23.213-16.792ZM23.161-19.6a3.834,3.834,0,0,0,2.338-.728,4.721,4.721,0,0,0,1.546-2.183,10.316,10.316,0,0,0,.559-3.664,10.229,10.229,0,0,0-.559-3.638,4.594,4.594,0,0,0-1.559-2.17,3.9,3.9,0,0,0-2.325-.715,3.9,3.9,0,0,0-2.325.715,4.52,4.52,0,0,0-1.546,2.157,10.428,10.428,0,0,0-.546,3.651,10.54,10.54,0,0,0,.546,3.664,4.6,4.6,0,0,0,1.546,2.183A3.849,3.849,0,0,0,23.161-19.6Zm17.071,2.806a6.538,6.538,0,0,1-3.755-1.156,8.058,8.058,0,0,1-2.715-3.261,11.329,11.329,0,0,1-1.013-4.963,11.369,11.369,0,0,1,1-4.95,7.924,7.924,0,0,1,2.689-3.235A6.529,6.529,0,0,1,40.18-35.5a6.571,6.571,0,0,1,3.768,1.143,7.924,7.924,0,0,1,2.689,3.235,11.434,11.434,0,0,1,1,4.976,11.455,11.455,0,0,1-1,4.963,7.949,7.949,0,0,1-2.676,3.248A6.469,6.469,0,0,1,40.232-16.792ZM40.18-19.6a3.834,3.834,0,0,0,2.338-.728,4.721,4.721,0,0,0,1.546-2.183,10.316,10.316,0,0,0,.559-3.664,10.229,10.229,0,0,0-.559-3.638,4.594,4.594,0,0,0-1.559-2.17,3.9,3.9,0,0,0-2.325-.715,3.9,3.9,0,0,0-2.325.715,4.52,4.52,0,0,0-1.546,2.157,10.428,10.428,0,0,0-.546,3.651,10.54,10.54,0,0,0,.546,3.664,4.6,4.6,0,0,0,1.546,2.183A3.849,3.849,0,0,0,40.18-19.6Z" transform="translate(13.424 56.217)" fill="#0e0268"/>
    </g>
  </g>
</svg>
