<?xml version="1.0" standalone="no"?>
<!DOCTYPE svg PUBLIC "-//W3C//DTD SVG 20010904//EN"
 "http://www.w3.org/TR/2001/REC-SVG-20010904/DTD/svg10.dtd">
<svg version="1.0" xmlns="http://www.w3.org/2000/svg"
 width="700.000000pt" height="700.000000pt" viewBox="0 0 700.000000 700.000000"
 preserveAspectRatio="xMidYMid meet">
<metadata>
Created by potrace 1.14, written by Peter Selinger 2001-2017
</metadata>
<g transform="translate(0.000000,700.000000) scale(0.100000,-0.100000)"
fill="#000000" stroke="none">
<path d="M5297 6933 c-117 -180 -185 -286 -382 -593 -66 -102 -133 -205 -150
-230 l-32 -45 -1599 -1 c-879 -1 -1619 -4 -1644 -8 -25 -3 -63 -9 -85 -12 -22
-3 -78 -14 -125 -25 -87 -20 -94 -22 -120 -31 -8 -3 -44 -16 -80 -28 -345
-118 -663 -380 -855 -702 -81 -135 -169 -359 -191 -483 -35 -205 -45 -541 -19
-685 7 -41 16 -91 20 -110 10 -58 71 -230 110 -313 132 -281 391 -542 680
-685 131 -65 314 -129 419 -148 17 -3 49 -9 71 -14 74 -16 208 -22 475 -23
l265 0 0 -1381 c-1 -760 1 -1389 3 -1398 6 -25 24 -22 41 5 8 12 154 260 324
552 171 292 318 544 328 560 10 17 23 39 29 50 5 11 23 43 40 70 16 28 42 71
56 98 l27 47 1231 0 c1201 1 1359 2 1441 15 112 18 144 24 225 46 401 111 764
380 962 716 62 104 152 304 162 358 1 6 4 15 8 20 6 11 44 176 54 235 3 19 7
136 9 260 4 285 -16 408 -102 624 -136 343 -402 629 -737 789 -136 66 -255
109 -371 133 -102 22 -131 27 -255 39 -14 2 -55 3 -92 4 l-68 1 -2 1177 c-2
891 -6 1177 -15 1180 -6 2 -31 -26 -56 -64z m73 -2593 l0 -300 28 -1 c161 -4
308 -33 417 -83 17 -8 47 -21 69 -30 93 -38 240 -157 318 -256 74 -93 132
-211 163 -330 42 -160 39 -414 -6 -585 -6 -22 -11 -42 -12 -45 0 -3 -13 -36
-30 -75 -79 -187 -201 -339 -360 -447 -84 -57 -231 -125 -323 -148 -44 -11
-90 -24 -104 -27 -14 -4 -649 -9 -1412 -10 l-1388 -4 0 399 0 398 -322 -1
c-178 0 -330 2 -338 6 -14 6 -15 86 -14 671 1 655 2 664 23 733 68 213 220
360 431 416 60 16 170 17 1463 18 l1397 1 0 -300z"/>
<path d="M2730 3421 c0 -486 3 -620 13 -623 22 -7 1521 -1 1592 6 316 34 615
204 807 461 141 187 223 432 227 672 l2 103 -1320 0 -1321 0 0 -619z"/>
</g>
</svg>
