<?xml version="1.0" encoding="UTF-8" standalone="no"?>
<!DOCTYPE svg PUBLIC "-//W3C//DTD SVG 1.1//EN" "http://www.w3.org/Graphics/SVG/1.1/DTD/svg11.dtd">
<svg width="100%" height="100%" viewBox="0 0 40 40" version="1.1" xmlns="http://www.w3.org/2000/svg" xmlns:xlink="http://www.w3.org/1999/xlink" xml:space="preserve" xmlns:serif="http://www.serif.com/" style="fill-rule:evenodd;clip-rule:evenodd;stroke-linejoin:round;stroke-miterlimit:2;">
    <g id="Path_2023" transform="matrix(1,0,0,1,-58.496,-67.933)">
        <path d="M93.417,82.3C92.133,81.705 90.732,81.403 89.317,81.415L89.189,81.415L89.189,84.851L89.317,84.851C90.217,84.842 91.108,85.031 91.927,85.403C93.911,86.258 95.155,88.275 95.027,90.432C95.093,92.104 94.437,93.727 93.227,94.883C92.065,95.943 90.54,96.521 88.967,96.496L74.093,96.496L74.093,91.954L70.239,91.954L70.239,107.817C70.24,107.881 70.292,107.933 70.356,107.933C70.398,107.933 70.436,107.911 70.457,107.875L75.097,99.933L88.971,99.933C91.43,99.96 93.809,99.046 95.617,97.379C97.517,95.577 98.566,93.051 98.5,90.433C98.629,86.945 96.609,83.713 93.417,82.3" style="fill:white;fill-opacity:0.15;fill-rule:nonzero;"/>
    </g>
    <path id="Path_2024" d="M15.6,16.919L15.6,24.019L11.743,24.019L11.743,16.91C11.752,15.022 13.312,13.476 15.2,13.483L30.69,13.483L30.69,0.117C30.69,0.053 30.637,0 30.573,0C30.533,0 30.495,0.021 30.474,0.055L27.065,5.346L9.592,5.346C7.113,5.325 4.717,6.248 2.892,7.926C0.961,9.753 -0.094,12.325 -0,14.982C-0.164,18.428 1.799,21.643 4.94,23.071C6.264,23.705 7.715,24.029 9.183,24.02L24.03,24.02C27.668,24.037 30.675,21.058 30.693,17.42L30.693,16.92L15.6,16.919Z" style="fill:white;fill-opacity:0.15;fill-rule:nonzero;"/>
</svg>
