<svg id="icon-instagram" xmlns="http://www.w3.org/2000/svg" width="20" height="20" viewBox="0 0 20 20">
  <rect id="Rectangle_5031" data-name="Rectangle 5031" width="20" height="20" fill="none"/>
  <g id="Group_2148" data-name="Group 2148">
    <g id="Group_2147" data-name="Group 2147">
      <path id="Path_141" data-name="Path 141" d="M14.19,0H5.81A5.816,5.816,0,0,0,0,5.81V14.19A5.816,5.816,0,0,0,5.81,20H14.19A5.816,5.816,0,0,0,20,14.19V5.81A5.816,5.816,0,0,0,14.19,0Zm4.247,14.19a4.252,4.252,0,0,1-4.247,4.247H5.81A4.252,4.252,0,0,1,1.563,14.19V5.81A4.252,4.252,0,0,1,5.81,1.563H14.19A4.252,4.252,0,0,1,18.438,5.81Z" fill="#fff"/>
    </g>
  </g>
  <g id="Group_2150" data-name="Group 2150" transform="translate(4.609 4.609)">
    <g id="Group_2149" data-name="Group 2149">
      <path id="Path_142" data-name="Path 142" d="M123.391,118a5.391,5.391,0,1,0,5.391,5.391A5.4,5.4,0,0,0,123.391,118Zm0,9.219a3.828,3.828,0,1,1,3.828-3.828A3.832,3.832,0,0,1,123.391,127.219Z" transform="translate(-118 -118)" fill="#fff"/>
    </g>
  </g>
  <g id="Group_2152" data-name="Group 2152" transform="translate(14.598 3.758)">
    <g id="Group_2151" data-name="Group 2151" transform="translate(0 0)">
      <ellipse id="Ellipse_26" data-name="Ellipse 26" cx="0.822" cy="0.822" rx="0.822" ry="0.822" fill="#fff"/>
    </g>
  </g>
</svg>
