<svg xmlns="http://www.w3.org/2000/svg" width="20" height="20" viewBox="0 0 20 20">
  <defs>
    <clipPath id="a">
      <path fill="none" d="M0 0h18.773v20H0z" data-name="Rectangle 5317"/>
    </clipPath>
  </defs>
  <path fill="none" d="M0 0h20v20H0z" data-name="Rectangle 5318"/>
  <g data-name="Group 11499">
    <g fill="#fff" clip-path="url(#a)" data-name="Group 11498" transform="translate(1)">
      <path d="M6.579 15.52a1.434 1.434 0 0 0 .949.864 6.778 6.778 0 0 0 1.958.236 9.714 9.714 0 0 0 2.871-.377.753.753 0 0 1 .989.731c.019.451.037.9.065 1.352a.818.818 0 0 1-.528.883 8.589 8.589 0 0 1-2.283.646 13.567 13.567 0 0 1-5.932-.45 5.619 5.619 0 0 1-3.612-3.313 12.091 12.091 0 0 1-.886-3.631 51.885 51.885 0 0 1-.161-5.914 7.066 7.066 0 0 1 .734-3.178A5.209 5.209 0 0 1 4.578.453a25.282 25.282 0 0 1 6.37-.41 22.041 22.041 0 0 1 3.358.44A5.268 5.268 0 0 1 18.4 4.327a9.908 9.908 0 0 1 .348 3.659c-.058 1.142-.184 2.28-.269 3.421a3.677 3.677 0 0 1-1.621 2.719 7.569 7.569 0 0 1-3.591 1.447 19.8 19.8 0 0 1-3.824.235c-.872-.049-1.74-.169-2.61-.257-.072-.007-.145-.018-.25-.031m5.314 2.462-.018-.063c-.331.047-.661.1-.994.138a10.4 10.4 0 0 1-3.611-.188 2.807 2.807 0 0 1-1.989-1.509 4.453 4.453 0 0 1-.361-1.684.778.778 0 0 1 1-.819 16.486 16.486 0 0 0 3.9.456c1.054-.023 2.108-.133 3.159-.226a5.929 5.929 0 0 0 2.381-.773 2.891 2.891 0 0 0 1.685-2.424c.107-1.4.23-2.8.206-4.213a6.159 6.159 0 0 0-.355-2.059 3.879 3.879 0 0 0-3.076-2.713 22.423 22.423 0 0 0-3.143-.373 23.168 23.168 0 0 0-5.748.38 3.7 3.7 0 0 0-2.1 1.078 5.167 5.167 0 0 0-1.32 3.471 49.926 49.926 0 0 0 .11 5.492 11.265 11.265 0 0 0 .761 3.433 4.159 4.159 0 0 0 3 2.653c.694.154 1.4.294 2.1.379a9.9 9.9 0 0 0 4.154-.337c.084-.026.165-.065.247-.1" data-name="Path 18218"/>
      <path d="M9.367 5.4a3.3 3.3 0 0 1 1.252-1.062 2.824 2.824 0 0 1 3.434.732 3.689 3.689 0 0 1 .681 2.14c.017 1.347.006 2.694 0 4.04a.756.756 0 0 1-.741.851.7.7 0 0 1-.738-.63c-.035-.428-.024-.861-.025-1.291 0-.976.006-1.953 0-2.929a2.969 2.969 0 0 0-.088-.717 1.246 1.246 0 0 0-1.676-.911 1.919 1.919 0 0 0-1.328 1.768v2.2a.775.775 0 0 1-.434.779.729.729 0 0 1-1.053-.555 8.132 8.132 0 0 1-.023-.928V7.372a1.92 1.92 0 0 0-1.672-1.743 2.448 2.448 0 0 0-.523.023.939.939 0 0 0-.857 1.016c0 .788 0 1.576.005 2.364s.007 1.549 0 2.323a.75.75 0 1 1-1.5-.028V6.781a2.483 2.483 0 0 1 1.553-2.466 3.237 3.237 0 0 1 3.518.839l.216.244" data-name="Path 18219"/>
    </g>
  </g>
</svg>
