<svg xmlns="http://www.w3.org/2000/svg" width="20" height="20" viewBox="0 0 20 20">
  <defs>
    <clipPath id="a">
      <path fill="none" d="M0 0h17.501v20H0z" data-name="Rectangle 5319"/>
    </clipPath>
  </defs>
  <g data-name="Group 11503">
    <path fill="none" d="M0 0h20v20H0z" data-name="Rectangle 5318"/>
  </g>
  <g data-name="Group 11502">
    <g clip-path="url(#a)" data-name="Group 11501" transform="translate(1)">
      <path fill="#fff" d="M13.1 7.767v2.9c0 .983.012 1.966-.007 2.949A6.545 6.545 0 1 1 5.3 7.033a9.115 9.115 0 0 1 1.182-.12.58.58 0 0 1 .662.638V10.5a.622.622 0 0 1-.677.718 2.159 2.159 0 0 0-1.921 1.265 2.137 2.137 0 0 0 .219 2.3 2.225 2.225 0 0 0 2.321.837 2.161 2.161 0 0 0 1.663-1.834c.064-.671.042-1.352.043-2.028V.723C8.791.214 9 0 9.507 0h2.93a.592.592 0 0 1 .663.644 3.806 3.806 0 0 0 3.3 3.711c.173.026.35.024.525.04a.586.586 0 0 1 .577.615q.008 1.543 0 3.086a.594.594 0 0 1-.66.611 8.126 8.126 0 0 1-3.571-.865c-.045-.023-.091-.041-.165-.075m-7.136.344c-.132.019-.24.032-.346.05a5.371 5.371 0 1 0 6.292 5.449c.03-2.265.01-4.531.009-6.8a.629.629 0 0 1 .314-.625.637.637 0 0 1 .71.1 6.621 6.621 0 0 0 2.447 1.077c.3.066.607.1.929.156V5.641c0-.129-.088-.118-.17-.134a4.926 4.926 0 0 1-4.04-3.592c-.075-.239-.114-.49-.168-.73H9.964v7.843c0 1.51.024 3.021-.008 4.531a3.409 3.409 0 1 1-4.293-3.4c.305-.086.306-.086.306-.406V8.11" data-name="Path 18220"/>
    </g>
  </g>
</svg>
