<svg id="icon-twitter" xmlns="http://www.w3.org/2000/svg" width="20" height="20" viewBox="0 0 20 20">
  <rect id="Rectangle_5030" data-name="Rectangle 5030" width="20" height="20" fill="none"/>
  <g id="Group_1881" data-name="Group 1881" transform="translate(0 2)">
    <path id="Path_49" data-name="Path 49" d="M17.627,50.617l-.01-.038a4.232,4.232,0,0,0,1.836-2.3A8.535,8.535,0,0,1,16.8,49.289,3.944,3.944,0,0,0,13.867,48a4.134,4.134,0,0,0-4.141,4.1,4.033,4.033,0,0,0,.117.938v.039A11.866,11.866,0,0,1,1.406,48.7,4.719,4.719,0,0,0,.859,50.93a4.55,4.55,0,0,0,1.8,3.477v.078A4.676,4.676,0,0,1,.781,53.7c0,.018.024.039.024.057a4.209,4.209,0,0,0,3.336,4.083A4.96,4.96,0,0,1,3.008,58a4.212,4.212,0,0,1-.781-.117,3.92,3.92,0,0,0,3.828,2.7v.039A8.373,8.373,0,0,1,.977,62.453,6.83,6.83,0,0,1,0,62.375,11.618,11.618,0,0,0,6.289,64.25a11.569,11.569,0,0,0,11.68-11.641v-.547A8.491,8.491,0,0,0,20,49.875,8.64,8.64,0,0,1,17.627,50.617Zm-1.221,1.993a10.247,10.247,0,0,1-.664,3.56,10.415,10.415,0,0,1-1.953,3.26,9.686,9.686,0,0,1-7.5,3.258q-.168,0-.336-.006a9.542,9.542,0,0,0,1.059-.712l.605-.469V59.016l-.644-.007A1.285,1.285,0,0,1,5.7,57.724V56.446l-.845-.191a.82.82,0,0,1-.639-.8V54.367l-.02-.8L3.5,53.107a3.188,3.188,0,0,1-.766-1,13.209,13.209,0,0,0,7.016,2.535l1.652.094V52.854l-.043-.179a2.438,2.438,0,0,1,.682-2.362,2.581,2.581,0,0,1,1.822-.75,2.38,2.38,0,0,1,1.79.8l.4.425.048.186.01.038.292,1.128Z" transform="translate(0 -48)" fill="#fff"/>
  </g>
</svg>
