<svg xmlns="http://www.w3.org/2000/svg" width="20" height="20" viewBox="0 0 20 20">
  <defs>
    <clipPath id="a">
      <path fill="none" d="M0 0h20v20H0z" data-name="Rectangle 5320"/>
    </clipPath>
  </defs>
  <g clip-path="url(#a)" data-name="Group 11505">
    <path fill="#fff" d="m0 19.991 3.73-4.227q1.948-2.208 3.9-4.413a.325.325 0 0 0 .018-.481Q4.067 5.807.5.736C.346.52.2.3.019.038.17.026.269.013.367.013c1.757 0 3.514 0 5.271-.007a.545.545 0 0 1 .505.282q2.4 3.427 4.821 6.843a2.2 2.2 0 0 0 .287.308.989.989 0 0 1 .119-.3q2.979-3.4 5.962-6.8A.83.83 0 0 1 18.083 0c.39.029.785.007 1.284.007L11.9 8.47l8.1 11.5c-.171.009-.282.021-.392.021-1.745 0-3.49 0-5.236.005a.55.55 0 0 1-.511-.278q-2.541-3.63-5.1-7.249c-.052-.073-.115-.137-.195-.231-.55.622-1.083 1.223-1.614 1.826q-2.465 2.8-4.925 5.61a.8.8 0 0 1-.715.326C.908 19.969.5 19.991 0 19.991M2.363 1.308c.166.238.276.4.39.559Q4.785 4.7 6.817 7.524q3.958 5.518 7.92 11.032a.618.618 0 0 0 .424.222c.713.022 1.428.011 2.142.008a2.892 2.892 0 0 0 .308-.038c-.121-.173-.212-.305-.306-.436q-2.3-3.2-4.591-6.4Q8.992 6.72 5.268 1.529c-.067-.094-.187-.21-.285-.212-.84-.017-1.68-.01-2.62-.01" data-name="Path 18221"/>
  </g>
</svg>
