<svg id="Group_11967" data-name="Group 11967" xmlns="http://www.w3.org/2000/svg" xmlns:xlink="http://www.w3.org/1999/xlink" width="180" height="42" viewBox="0 0 180 42">
  <defs>
    <linearGradient id="linear-gradient" x1="0.813" x2="-0.122" gradientUnits="objectBoundingBox">
      <stop offset="0" stop-color="#ff1358"/>
      <stop offset="1" stop-color="#632fb3"/>
    </linearGradient>
    <clipPath id="clip-path">
      <rect id="Rectangle_6105" data-name="Rectangle 6105" width="180" height="42" fill="none"/>
    </clipPath>
    <clipPath id="clip-path-2">
      <path id="Path_18389" data-name="Path 18389" d="M73.908,81.416a3.635,3.635,0,0,0-3.67,3.6v7.466h4.088V85.024H90.337V81.416Z" transform="translate(-70.238 -81.416)" fill="url(#linear-gradient)"/>
    </clipPath>
  </defs>
  <g id="Group_11832" data-name="Group 11832">
    <g id="Group_11831" data-name="Group 11831" clip-path="url(#clip-path)">
      <path id="Path_18387" data-name="Path 18387" d="M70.238,109.137V81.416H90.473a10.214,10.214,0,0,1,4.348.929,8.968,8.968,0,0,1,5.387,8.539,9.669,9.669,0,0,1-3.053,7.293,10.289,10.289,0,0,1-7.049,2.682H75.391L70.47,109.2a.125.125,0,0,1-.232-.061m4.088-11.886H90.107a6.589,6.589,0,0,0,4.519-1.694,6.1,6.1,0,0,0,1.9-4.674A5.4,5.4,0,0,0,93.242,85.6a6.6,6.6,0,0,0-2.769-.58H74.326Z" transform="translate(-57.783 -67.259)" fill="#00beea"/>
      <path id="Path_18388" data-name="Path 18388" d="M32.554,18.292V.123a.125.125,0,0,0-.229-.066L28.706,5.614H10.173a10.427,10.427,0,0,0-7.1,2.709A9.68,9.68,0,0,0,0,15.732a8.863,8.863,0,0,0,5.239,8.494,10.367,10.367,0,0,0,4.5,1H25.487a7,7,0,0,0,7.067-6.93" transform="translate(0 -0.001)" fill="#ffffff"/>
    </g>
  </g>
  <g id="Group_11834" data-name="Group 11834" transform="translate(12.455 14.157)">
    <g id="Group_11833" data-name="Group 11833" clip-path="url(#clip-path-2)">
      <rect id="Rectangle_6106" data-name="Rectangle 6106" width="20.099" height="11.065" transform="translate(0)" fill="url(#linear-gradient)"/>
    </g>
  </g>
  <g id="Group_11836" data-name="Group 11836">
    <g id="Group_11835" data-name="Group 11835" clip-path="url(#clip-path)">
      <path id="Path_18390" data-name="Path 18390" d="M293.277,82.3h8.852c6.375,0,10.745,3.767,10.745,9.554s-4.37,9.554-10.745,9.554h-8.852Zm8.63,15.477c3.869,0,6.4-2.266,6.4-5.923s-2.533-5.923-6.4-5.923h-4.12V97.777Z" transform="translate(-241.271 -67.99)" fill="#ffffff"/>
      <path id="Path_18391" data-name="Path 18391" d="M408.659,114.035c0-4.422,3.48-7.561,8.24-7.561s8.212,3.139,8.212,7.561-3.452,7.561-8.212,7.561-8.24-3.139-8.24-7.561m12.054,0A3.835,3.835,0,1,0,416.9,118.1a3.738,3.738,0,0,0,3.813-4.068" transform="translate(-336.193 -87.96)" fill="#ffffff"/>
      <path id="Path_18392" data-name="Path 18392" d="M517.467,119.765a.125.125,0,0,0-.174.013,5.851,5.851,0,0,1-4.6,1.818,7.562,7.562,0,0,1,0-15.122,5.847,5.847,0,0,1,4.4,1.689.125.125,0,0,0,.169.013l1.817-1.456a.126.126,0,0,1,.079-.027h2.357v14.685H519.4a.127.127,0,0,1-.082-.03Zm-.2-5.73a3.835,3.835,0,1,0-3.813,4.068,3.753,3.753,0,0,0,3.813-4.068" transform="translate(-415.622 -87.96)" fill="#ffffff"/>
      <path id="Path_18393" data-name="Path 18393" d="M609.775,108.249c1.058-1.419,2.84-1.774,5.15-1.774v3.931c-.362-.027-.64-.054-.974-.054-2.394,0-3.981,1.283-3.981,4.094v6.933h-4.342V106.694h2.053" transform="translate(-498.233 -87.961)" fill="#ffffff"/>
      <path id="Path_18394" data-name="Path 18394" d="M686.969,89.233c0,4.258-3.257,6.906-8.462,6.906h-3.925v5.268h-4.51V82.3h8.435c5.206,0,8.462,2.648,8.462,6.933m-4.565,0c0-2.1-1.392-3.33-4.148-3.33h-3.675v6.633h3.675c2.756,0,4.148-1.228,4.148-3.3" transform="translate(-551.251 -67.99)" fill="#ffffff"/>
      <path id="Path_18395" data-name="Path 18395" d="M781.234,119.765a.125.125,0,0,0-.174.013,5.851,5.851,0,0,1-4.6,1.818,7.562,7.562,0,0,1,0-15.122,5.847,5.847,0,0,1,4.4,1.689.125.125,0,0,0,.168.013l1.817-1.456a.126.126,0,0,1,.079-.027h2.357v14.685H783.17a.127.127,0,0,1-.082-.03Zm-.205-5.73a3.835,3.835,0,1,0-3.813,4.068,3.753,3.753,0,0,0,3.813-4.068" transform="translate(-632.616 -87.96)" fill="#ffffff"/>
      <path id="Path_18396" data-name="Path 18396" d="M873.615,108.152c1.066-1.339,2.818-1.678,5.075-1.678V110.4c-.362-.027-.64-.054-.974-.054-2.394,0-3.981,1.283-3.981,4.094v6.934h-4.342V106.693H871.4a.126.126,0,0,1,.075.025l1.963,1.458a.125.125,0,0,0,.172-.024" transform="translate(-715.227 -87.96)" fill="#ffffff"/>
      <path id="Path_18397" data-name="Path 18397" d="M935.344,119.765a.125.125,0,0,0-.174.013,5.851,5.851,0,0,1-4.6,1.818,7.562,7.562,0,0,1,0-15.122,5.847,5.847,0,0,1,4.4,1.689.125.125,0,0,0,.169.013l1.817-1.456a.126.126,0,0,1,.079-.027H939.4v14.685H937.28a.127.127,0,0,1-.081-.03Zm-.2-5.73a3.835,3.835,0,1,0-3.813,4.068,3.753,3.753,0,0,0,3.813-4.068" transform="translate(-759.399 -87.96)" fill="#ffffff"/>
    </g>
  </g>
</svg>
