<svg xmlns="http://www.w3.org/2000/svg" xml:space="preserve" fill-rule="evenodd" stroke-linejoin="round" stroke-miterlimit="2" clip-rule="evenodd" viewBox="0 0 180 43" width="180" height="43">
  <path fill="#fff" fill-rule="nonzero" d="M111.541 20.69c1.058-1.447 2.84-1.809 5.15-1.809v4.008c-.362-.028-.64-.056-.974-.056-2.394 0-3.981 1.308-3.981 4.175v7.071h-4.342V19.106h2.053"/>
  <path fill="#fff" fill-rule="nonzero" d="M175.945 32.436a.124.124 0 0 0-.174.013 5.793 5.793 0 0 1-4.6 1.854c-4.231 0-7.488-3.006-7.488-7.711s3.257-7.711 7.488-7.711a5.788 5.788 0 0 1 4.4 1.723.124.124 0 0 0 .168.013l1.817-1.485a.125.125 0 0 1 .079-.028h2.366V34.08h-2.12a.125.125 0 0 1-.082-.031l-1.854-1.613Zm-.205-5.844c0-2.589-1.67-4.148-3.813-4.148a4.177 4.177 0 0 0-3.872 4.15 4.177 4.177 0 0 0 3.872 4.15c2.143 0 3.813-1.559 3.813-4.148"/>
  <path fill="#fff" fill-rule="nonzero" d="M158.388 20.592c1.066-1.365 2.818-1.711 5.075-1.711v4.008c-.362-.028-.64-.055-.974-.055-2.394 0-3.981 1.308-3.981 4.175v7.071h-4.342V19.107h2.007c.027 0 .053.009.075.025l1.963 1.487c.054.04.131.029.172-.024"/>
  <path fill="#fff" fill-rule="nonzero" d="M148.618 32.436a.124.124 0 0 0-.174.013 5.793 5.793 0 0 1-4.6 1.854c-4.231 0-7.489-3.006-7.489-7.711s3.257-7.711 7.489-7.711a5.788 5.788 0 0 1 4.4 1.723.124.124 0 0 0 .168.013l1.817-1.485a.125.125 0 0 1 .079-.028h2.357V34.08h-2.111a.125.125 0 0 1-.082-.031l-1.854-1.613Zm-.2-5.844c0-2.589-1.67-4.148-3.813-4.148a4.177 4.177 0 0 0-3.872 4.15 4.177 4.177 0 0 0 3.872 4.15c2.143 0 3.813-1.559 3.813-4.148"/>
  <path fill="#fff" fill-rule="nonzero" d="M135.718 21.664c0 4.343-3.257 7.043-8.462 7.043h-3.925v5.372h-4.51V14.594h8.435c5.206 0 8.462 2.7 8.462 7.07m-4.565 0c0-2.143-1.392-3.4-4.148-3.4h-3.675v6.764h3.675c2.756 0 4.148-1.253 4.148-3.368"/>
  <path fill="#fff" fill-rule="nonzero" d="M101.845 32.436a.124.124 0 0 0-.174.013 5.793 5.793 0 0 1-4.6 1.854c-4.231 0-7.488-3.006-7.488-7.711s3.257-7.711 7.488-7.711a5.788 5.788 0 0 1 4.4 1.723.124.124 0 0 0 .168.013l1.817-1.485a.125.125 0 0 1 .079-.028h2.357V34.08h-2.114a.125.125 0 0 1-.082-.031l-1.851-1.613Zm-.205-5.844c0-2.589-1.67-4.148-3.813-4.148a4.177 4.177 0 0 0-3.872 4.15 4.177 4.177 0 0 0 3.872 4.15c2.143 0 3.813-1.559 3.813-4.148"/>
  <path fill="#fff" fill-rule="nonzero" d="M72.466 26.592c0-4.51 3.48-7.711 8.24-7.711s8.212 3.2 8.212 7.711-3.452 7.711-8.212 7.711-8.24-3.2-8.24-7.711m12.054 0c0-2.589-1.642-4.148-3.813-4.148a4.177 4.177 0 0 0-3.872 4.15 4.177 4.177 0 0 0 3.872 4.15c2.171 0 3.813-1.559 3.813-4.148"/>
  <path fill="#fff" fill-rule="nonzero" d="M52.006 14.594h8.852c6.375 0 10.745 3.842 10.745 9.743s-4.37 9.743-10.745 9.743h-8.852V14.594Zm8.63 15.784c3.869 0 6.4-2.311 6.4-6.041 0-3.73-2.531-6.043-6.4-6.043h-4.12v12.084h4.12Z"/>
  <path fill="#fff" fill-rule="nonzero" d="M37.038 15.385a10.047 10.047 0 0 0-4.348-.948h-.136v3.684h.136a6.499 6.499 0 0 1 2.769.591 5.524 5.524 0 0 1 3.287 5.385 6.288 6.288 0 0 1-1.9 4.766 6.514 6.514 0 0 1-4.519 1.727H16.543v-4.869h-4.088v16.988c0 .068.056.124.124.124a.124.124 0 0 0 .108-.063l4.922-8.5h14.714a10.184 10.184 0 0 0 7.049-2.735 9.961 9.961 0 0 0 3.053-7.438 9.175 9.175 0 0 0-5.387-8.708"/>
  <path fill="#fff" fill-rule="nonzero" d="M16.543 18.117v7.6h-4.088v-7.609a3.688 3.688 0 0 1 3.67-3.67h16.429V.124a.124.124 0 0 0-.229-.066l-3.619 5.667H10.173a10.316 10.316 0 0 0-7.1 2.763A9.972 9.972 0 0 0 0 16.043a9.06 9.06 0 0 0 5.239 8.662 10.205 10.205 0 0 0 4.5 1.016h15.748c3.877 0 7.067-3.19 7.067-7.067v-.538l-16.011.001Z"/>
</svg>
