<svg id="Group_11965" data-name="Group 11965" xmlns="http://www.w3.org/2000/svg" xmlns:xlink="http://www.w3.org/1999/xlink" width="210" height="50" viewBox="0 0 210 50">
  <defs>
    <clipPath id="clip-path">
      <rect id="Rectangle_6105" data-name="Rectangle 6105" width="210" height="50" fill="#888e9e"/>
    </clipPath>
    <clipPath id="clip-path-2">
      <path id="Path_18389" data-name="Path 18389" d="M74.523,81.416a4.274,4.274,0,0,0-4.285,4.262v8.841h4.773v-8.83H93.7V81.416Z" transform="translate(-70.238 -81.416)" fill="#fff"/>
    </clipPath>
  </defs>
  <g id="Group_11832" data-name="Group 11832">
    <g id="Group_11831" data-name="Group 11831" clip-path="url(#clip-path)">
      <path id="Path_18387" data-name="Path 18387" d="M70.238,114.243V81.416H93.863a11.783,11.783,0,0,1,5.077,1.1,10.631,10.631,0,0,1,6.289,10.112,11.53,11.53,0,0,1-3.565,8.636,11.918,11.918,0,0,1-8.229,3.176H76.255l-5.746,9.875a.145.145,0,0,1-.27-.072m4.773-14.075H93.435a7.631,7.631,0,0,0,5.275-2.006,7.278,7.278,0,0,0,2.223-5.535A6.4,6.4,0,0,0,97.1,86.375a7.612,7.612,0,0,0-3.233-.687H75.011Z" transform="translate(-55.697 -64.652)" fill="#888e9e"/>
      <path id="Path_18388" data-name="Path 18388" d="M38.007,21.661V.145A.145.145,0,0,0,37.74.068L33.515,6.648H11.877A12.077,12.077,0,0,0,3.583,9.856,11.54,11.54,0,0,0,0,18.629,10.5,10.5,0,0,0,6.117,28.688a11.961,11.961,0,0,0,5.254,1.18H29.756a8.229,8.229,0,0,0,8.251-8.206" transform="translate(0 -0.001)" fill="#888e9e"/>
    </g>
  </g>
  <g id="Group_11834" data-name="Group 11834" transform="translate(14.541 16.764)">
    <g id="Group_11833" data-name="Group 11833" clip-path="url(#clip-path-2)">
      <rect id="Rectangle_6106" data-name="Rectangle 6106" width="23.466" height="13.103" transform="translate(0)" fill="#fff"/>
    </g>
  </g>
  <g id="Group_11836" data-name="Group 11836">
    <g id="Group_11835" data-name="Group 11835" clip-path="url(#clip-path)">
      <path id="Path_18390" data-name="Path 18390" d="M293.277,82.3h10.335c7.443,0,12.545,4.461,12.545,11.313s-5.1,11.313-12.545,11.313H293.277Zm10.075,18.327c4.517,0,7.475-2.683,7.475-7.014s-2.958-7.014-7.475-7.014h-4.81v14.028Z" transform="translate(-232.56 -65.354)" fill="#888e9e"/>
      <path id="Path_18391" data-name="Path 18391" d="M408.659,115.428c0-5.237,4.063-8.954,9.621-8.954s9.588,3.717,9.588,8.954-4.03,8.954-9.588,8.954-9.621-3.717-9.621-8.954m14.073,0c0-3.006-1.918-4.816-4.452-4.816s-4.485,1.81-4.485,4.816,1.95,4.817,4.485,4.817,4.452-1.811,4.452-4.817" transform="translate(-324.055 -84.55)" fill="#888e9e"/>
      <path id="Path_18392" data-name="Path 18392" d="M519.52,122.213a.144.144,0,0,0-.2.015,6.782,6.782,0,0,1-5.366,2.153c-4.94,0-8.742-3.491-8.742-8.954s3.8-8.954,8.742-8.954a6.775,6.775,0,0,1,5.141,2,.144.144,0,0,0,.2.015l2.121-1.724a.146.146,0,0,1,.092-.033h2.752v17.39h-2.473a.147.147,0,0,1-.1-.035Zm-.239-6.786c0-3.006-1.95-4.816-4.452-4.816-2.535,0-4.485,1.81-4.485,4.816s1.95,4.817,4.485,4.817c2.5,0,4.452-1.811,4.452-4.817" transform="translate(-400.616 -84.55)" fill="#888e9e"/>
      <path id="Path_18393" data-name="Path 18393" d="M610.469,108.576c1.235-1.681,3.315-2.1,6.012-2.1v4.654c-.422-.032-.747-.064-1.137-.064-2.795,0-4.647,1.519-4.647,4.848v8.21h-5.07v-17.39h2.4" transform="translate(-480.245 -84.551)" fill="#888e9e"/>
      <path id="Path_18394" data-name="Path 18394" d="M689.8,90.51c0,5.043-3.8,8.178-9.88,8.178h-4.582v6.238h-5.265V82.3h9.847c6.077,0,9.88,3.136,9.88,8.21m-5.33,0c0-2.489-1.625-3.943-4.842-3.943h-4.29v7.854h4.29c3.217,0,4.842-1.455,4.842-3.911" transform="translate(-531.348 -65.354)" fill="#888e9e"/>
      <path id="Path_18395" data-name="Path 18395" d="M783.287,122.213a.144.144,0,0,0-.2.015,6.782,6.782,0,0,1-5.366,2.153c-4.94,0-8.743-3.491-8.743-8.954s3.8-8.954,8.743-8.954a6.774,6.774,0,0,1,5.141,2,.144.144,0,0,0,.2.015l2.121-1.724a.145.145,0,0,1,.092-.033h2.752v17.39h-2.473a.146.146,0,0,1-.1-.035Zm-.239-6.786c0-3.006-1.95-4.816-4.452-4.816-2.535,0-4.485,1.81-4.485,4.816s1.95,4.817,4.485,4.817c2.5,0,4.452-1.811,4.452-4.817" transform="translate(-609.775 -84.55)" fill="#888e9e"/>
      <path id="Path_18396" data-name="Path 18396" d="M874.322,108.461c1.245-1.585,3.29-1.987,5.925-1.987v4.654c-.422-.032-.747-.064-1.137-.064-2.795,0-4.647,1.519-4.647,4.848v8.21h-5.07v-17.39h2.348a.146.146,0,0,1,.088.029l2.292,1.727a.145.145,0,0,0,.2-.028" transform="translate(-689.404 -84.55)" fill="#888e9e"/>
      <path id="Path_18397" data-name="Path 18397" d="M937.4,122.213a.144.144,0,0,0-.2.015,6.782,6.782,0,0,1-5.366,2.153c-4.94,0-8.742-3.491-8.742-8.954s3.8-8.954,8.742-8.954a6.775,6.775,0,0,1,5.141,2,.144.144,0,0,0,.2.015l2.121-1.724a.146.146,0,0,1,.092-.033h2.752v17.39h-2.473a.147.147,0,0,1-.1-.035Zm-.239-6.786c0-3.006-1.95-4.816-4.452-4.816-2.535,0-4.485,1.81-4.485,4.816s1.95,4.817,4.485,4.817c2.5,0,4.452-1.811,4.452-4.817" transform="translate(-731.981 -84.55)" fill="#888e9e"/>
    </g>
  </g>
</svg>
