<svg xmlns="http://www.w3.org/2000/svg" xml:space="preserve" fill-rule="evenodd" stroke-linejoin="round" stroke-miterlimit="2" clip-rule="evenodd" viewBox="0 0 147 97">
  <path fill="url(#a)" fill-rule="nonzero" d="M1557.58 490.353c-32.92 0-60-27.085-60-60s27.08-60 60-60c32.91 0 60 27.085 60 60a60.059 60.059 0 0 1-17.57 42.426 59.658 59.658 0 0 1-42.43 17.574" transform="matrix(.8 0 0 .8 -1198.06 -296.282)"/>
  <path fill="#0e0268" fill-rule="nonzero" d="M134.11 60c-6.584 0-12-5.417-12-12s5.416-12 12-12c6.582 0 12 5.417 12 12a12.01 12.01 0 0 1-3.514 8.485A11.932 11.932 0 0 1 134.11 60m-38.329 0c-6.584 0-12-5.417-12-12s5.416-12 12-12c6.582 0 12 5.417 12 12a12.01 12.01 0 0 1-3.514 8.485A11.932 11.932 0 0 1 95.781 60"/>
  <path fill="url(#b)" fill-rule="nonzero" d="M1526.58 370.353c-15.91 0-29 13.091-29 29s13.09 29 29 29 29-13.091 29-29c0-7.688-3.06-15.07-8.49-20.506a28.865 28.865 0 0 0-20.51-8.494" transform="translate(-899.532 -199.874) scale(.62069)"/>
  <defs>
    <linearGradient id="a" x1="0" x2="1" y1="0" y2="0" gradientTransform="matrix(0 147 -147 0 1557.58 361.353)" gradientUnits="userSpaceOnUse">
      <stop offset="0" stop-color="#12b3f9"/>
      <stop offset="1" stop-color="#2667ff"/>
    </linearGradient>
    <linearGradient id="b" x1="0" x2="1" y1="0" y2="0" gradientTransform="rotate(-90 979.641 -546.939) scale(71.0501)" gradientUnits="userSpaceOnUse">
      <stop offset="0" stop-color="#12b3f9" stop-opacity=".49"/>
      <stop offset="1" stop-color="#2667ff" stop-opacity=".49"/>
    </linearGradient>
  </defs>
</svg>
