<svg xmlns="http://www.w3.org/2000/svg" xml:space="preserve" fill-rule="evenodd" stroke-linecap="round" stroke-linejoin="round" clip-rule="evenodd" viewBox="0 0 200 108">
  <path fill="url(#a)" fill-rule="nonzero" d="M1557.58 490.353c-32.92 0-60-27.085-60-60s27.08-60 60-60c32.91 0 60 27.085 60 60a60.059 60.059 0 0 1-17.57 42.426 59.658 59.658 0 0 1-42.43 17.574" transform="matrix(-.6 0 0 -.6 970.548 312.212)"/>
  <path fill="#3b28cc" fill-rule="nonzero" d="M91.884 54c0-29.623 24.385-54 54-54 29.629 0 54 24.377 54 54s-24.371 54-54 54A54.057 54.057 0 0 1 107.7 92.183 53.918 53.918 0 0 1 91.884 54m33.025 20.987a29.678 29.678 0 0 0 20.975 8.693c16.285 0 29.686-13.398 29.686-29.682 0-16.282-13.4-29.681-29.686-29.681-16.271 0-29.672 13.399-29.672 29.681a29.547 29.547 0 0 0 8.697 20.99"/>
  <path fill="none" stroke="#0e0268" stroke-opacity=".35" stroke-width="1.96365px" d="M36 36v36m-9-8.454 2.637 1.977c3.513 2.637 9.21 2.637 12.726 0 3.516-2.638 3.517-6.91 0-9.546A10.662 10.662 0 0 0 36 54a9.712 9.712 0 0 1-6.008-1.977c-3.318-2.638-3.318-6.909 0-9.546a10.14 10.14 0 0 1 12.018 0l1.244.99"/>
  <defs>
    <linearGradient id="a" x1="0" x2="1" y1="0" y2="0" gradientTransform="matrix(0 147 -147 0 1557.58 361.353)" gradientUnits="userSpaceOnUse">
      <stop offset="0" stop-color="#12b3f9"/>
      <stop offset="1" stop-color="#2667ff"/>
    </linearGradient>
  </defs>
</svg>
